<?xml version="1.0" encoding="utf-8"?>
<!-- Generator: Adobe Illustrator 16.0.0, SVG Export Plug-In . SVG Version: 6.00 Build 0)  -->
<!DOCTYPE svg PUBLIC "-//W3C//DTD SVG 1.1//EN" "http://www.w3.org/Graphics/SVG/1.1/DTD/svg11.dtd">
<svg version="1.1" xmlns="http://www.w3.org/2000/svg" xmlns:xlink="http://www.w3.org/1999/xlink" x="0px" y="0px" width="500px"
	 height="500px" viewBox="0 0 500 500" enable-background="new 0 0 500 500" xml:space="preserve">
<g id="BACKGROUND">
</g>
<g id="OBJECTS">
	<g>
		<g>
			<path fill="#C70039" d="M221.519,154.05c0.546-0.165,1.203-0.247,1.97-0.247c0.766,0,1.478,0.082,2.135,0.247
				c0.657,0.164,1.177,0.356,1.56,0.575c0.383,0.22,0.464,0.439,0.246,0.657c-2.081,2.19-3.695,4.708-4.844,7.554
				c-1.149,2.847-1.889,5.721-2.217,8.621c-0.328,2.902-0.274,5.665,0.164,8.293s1.177,4.79,2.218,6.486
				c0.328,0.604,0.479,1.149,0.451,1.642c-0.028,0.492-0.193,0.862-0.492,1.108c-0.302,0.247-0.713,0.329-1.232,0.247
				c-0.521-0.082-1.055-0.396-1.601-0.944c-1.424-1.367-2.463-3.12-3.12-5.255c-0.657-2.134-1.095-4.242-1.313-6.322
				c-0.275-2.408-0.329-4.898-0.165-7.472c-1.096,0.657-2.19,1.313-3.284,1.971c-0.932,0.603-1.985,1.218-3.162,1.848
				c-1.177,0.629-2.313,1.246-3.408,1.847c-0.492,5.693-1.04,11.413-1.641,17.16c-0.604,5.748-1.083,11.113-1.437,16.093
				c-0.357,4.981-0.521,9.36-0.493,13.137c0.026,3.777,0.396,6.541,1.108,8.292c0.272,0.711,0.082,1.299-0.575,1.766
				c-0.657,0.465-1.478,0.739-2.464,0.82c-0.984,0.083-1.984-0.041-2.996-0.369c-1.013-0.329-1.738-0.931-2.175-1.806
				c-0.712-1.424-1.149-3.489-1.314-6.199c-0.164-2.709-0.164-5.72,0-9.031c0.165-3.312,0.423-6.774,0.78-10.387
				c0.355-3.612,0.739-7.02,1.149-10.223c0.41-3.202,0.807-6.02,1.19-8.457c0.382-2.435,0.628-4.172,0.738-5.214
				c0.11-1.039,0.069-2.352-0.123-3.94c-0.192-1.587-0.657-3.27-1.396-5.049c-0.738-1.779-1.751-3.558-3.037-5.337
				c-1.287-1.778-2.929-3.393-4.926-4.844c-1.999-1.449-4.38-2.64-7.143-3.571c-2.765-0.93-6.008-1.423-9.73-1.479
				c-0.602,0-0.985-0.177-1.149-0.533c-0.164-0.356-0.205-0.752-0.123-1.192c0.082-0.437,0.232-0.874,0.451-1.313
				c0.219-0.437,0.411-0.711,0.575-0.821c0.109-0.054,0.917-0.642,2.423-1.765c1.504-1.121,3.542-2.504,6.117-4.146
				c2.572-1.642,5.609-3.461,9.113-5.46c3.502-1.997,7.293-3.913,11.373-5.747c4.077-1.834,8.374-3.476,12.89-4.927
				c4.515-1.45,9.058-2.463,13.63-3.038c4.569-0.576,9.113-0.588,13.629-0.042c4.516,0.548,8.827,1.862,12.932,3.941
				c0.875,0.438,1.272,1.095,1.19,1.97c-0.083,0.876-0.411,1.712-0.985,2.504c-0.575,0.794-1.272,1.437-2.094,1.93
				c-0.821,0.492-1.56,0.602-2.217,0.329c-3.559-1.478-7.171-2.477-10.838-2.998c-3.668-0.52-7.335-0.669-11.001-0.451
				c-3.668,0.219-7.281,0.712-10.838,1.478c-3.56,0.767-6.953,1.725-10.181,2.874c0.382,1.588,0.657,3.503,0.821,5.747
				c0.164,2.246,0.232,4.735,0.205,7.472c-0.029,2.738-0.138,5.68-0.329,8.826c-0.192,3.149-0.424,6.392-0.697,9.73
				c1.039-0.602,2.106-1.232,3.202-1.889c1.094-0.657,2.121-1.286,3.078-1.889c0.958-0.602,1.752-1.135,2.382-1.601
				c0.629-0.465,0.998-0.807,1.108-1.026c0.656-1.368,1.218-2.627,1.683-3.777c0.464-1.15,0.916-2.176,1.355-3.08
				c0.438-0.902,0.875-1.641,1.313-2.216C220.396,154.583,220.915,154.213,221.519,154.05z M198.61,173.508
				c0-0.164,0.095-0.902,0.288-2.216c0.191-1.313,0.396-2.941,0.616-4.886c0.218-1.942,0.452-4.105,0.698-6.486
				c0.247-2.381,0.465-4.762,0.657-7.144c0.192-2.381,0.329-4.639,0.41-6.773c0.083-2.135,0.095-3.941,0.041-5.419
				c-3.559,1.424-6.788,2.916-9.688,4.475c-2.902,1.561-5.378,2.997-7.431,4.311c-2.053,1.313-3.585,2.421-4.598,3.325
				c-1.013,0.903-1.383,1.382-1.108,1.437c3.613,0.932,6.609,2.094,8.991,3.49c2.381,1.395,4.311,2.847,5.789,4.351
				c1.478,1.506,2.586,2.997,3.325,4.475c0.739,1.478,1.244,2.779,1.519,3.9c0.274,1.123,0.411,1.984,0.411,2.585
				C198.529,173.538,198.556,173.729,198.61,173.508z"/>
			<path fill="#C70039" d="M246.643,174.494c2.681-0.109,4.748,0.356,6.199,1.396c1.449,1.041,2.516,2.286,3.201,3.735
				c0.684,1.451,1.067,2.888,1.15,4.311c0.082,1.424,0.095,2.437,0.041,3.039c-0.275,2.245-0.85,4.161-1.725,5.747
				c-0.877,1.588-1.917,2.902-3.12,3.942c-1.205,1.04-2.519,1.861-3.941,2.462c-1.424,0.603-2.82,1.055-4.188,1.355
				c-1.369,0.301-2.656,0.479-3.859,0.533c-1.205,0.056-2.189,0.083-2.956,0.083c0.164,2.245,0.505,4.366,1.025,6.363
				c0.52,1.999,1.218,3.75,2.095,5.255c0.874,1.505,1.9,2.682,3.079,3.532c1.176,0.849,2.504,1.219,3.982,1.106
				c1.478-0.109,2.997-0.943,4.556-2.503c1.561-1.56,3.065-3.531,4.516-5.912c1.45-2.381,2.847-4.98,4.188-7.801
				c1.342-2.818,2.545-5.554,3.612-8.21c1.068-2.654,1.972-5.063,2.71-7.226c0.739-2.161,1.272-3.735,1.602-4.721
				c0.054-0.218,0.259-0.369,0.615-0.451c0.354-0.083,0.712-0.083,1.067,0c0.355,0.082,0.657,0.233,0.903,0.451
				c0.246,0.22,0.288,0.521,0.123,0.903c-0.111,0.275-0.369,1.082-0.779,2.422c-0.411,1.341-0.96,2.997-1.643,4.967
				c-0.686,1.971-1.479,4.188-2.381,6.651c-0.903,2.463-1.931,4.955-3.08,7.472c-1.149,2.519-2.367,4.955-3.653,7.308
				c-1.287,2.354-2.668,4.454-4.146,6.299c-1.479,1.845-2.997,3.336-4.559,4.475c-1.559,1.136-3.188,1.678-4.884,1.625
				c-2.902-0.057-5.393-0.793-7.471-2.208c-2.081-1.416-3.805-3.25-5.174-5.5s-2.353-4.8-2.955-7.646
				c-0.603-2.846-0.862-5.76-0.779-8.744c0.082-2.982,0.505-5.911,1.272-8.785c0.766-2.875,1.847-5.46,3.243-7.76
				c1.396-2.298,3.106-4.172,5.132-5.624C241.688,175.384,244.015,174.604,246.643,174.494z M246.971,177.45
				c-1.698,0.274-3.176,1.067-4.434,2.381c-1.26,1.313-2.286,2.97-3.079,4.967c-0.794,1.999-1.368,4.215-1.724,6.651
				c-0.356,2.437-0.48,4.914-0.37,7.43c0.711,0,1.766-0.068,3.161-0.205c1.396-0.136,2.805-0.588,4.229-1.355
				c1.423-0.766,2.723-1.942,3.9-3.531c1.177-1.587,1.929-3.777,2.258-6.569c0.218-2.243,0.206-4.022-0.041-5.336
				c-0.246-1.313-0.589-2.312-1.026-2.997c-0.439-0.684-0.932-1.109-1.479-1.272C247.819,177.45,247.353,177.396,246.971,177.45z"/>
			<path fill="#C70039" d="M264.54,177.532c0.218-2.736,0.916-4.912,2.094-6.527c1.177-1.614,2.6-2.792,4.27-3.531
				c1.669-0.74,3.46-1.108,5.376-1.108c1.917,0,3.724,0.219,5.421,0.656c0.217,0.055,0.41,0.206,0.574,0.452
				c0.165,0.247,0.245,0.521,0.245,0.821c0,0.301-0.109,0.575-0.326,0.821c-0.221,0.247-0.549,0.398-0.985,0.451
				c-0.932,0.164-1.863,0.411-2.793,0.74s-1.807,0.835-2.626,1.519c-0.822,0.686-1.533,1.588-2.136,2.709
				c-0.603,1.122-1.066,2.559-1.395,4.311c-0.276,1.587-0.234,3.531,0.122,5.829c0.355,2.3,0.904,4.831,1.643,7.595
				c0.739,2.764,1.586,5.679,2.546,8.744c0.956,3.067,1.899,6.131,2.832,9.196c1.97-2.244,3.942-4.557,5.911-6.938
				c1.971-2.382,3.858-4.844,5.666-7.389c1.807-2.546,3.474-5.159,5.008-7.842c1.531-2.681,2.846-5.419,3.941-8.21
				c0.163-0.493,0.437-0.807,0.82-0.944c0.382-0.136,0.74-0.124,1.067,0.041c0.329,0.164,0.602,0.506,0.821,1.026
				c0.218,0.521,0.273,1.19,0.164,2.012c-0.384,2.299-1.301,4.734-2.75,7.307c-1.451,2.574-3.216,5.214-5.297,7.924
				c-2.078,2.709-4.364,5.46-6.855,8.251c-2.491,2.792-4.967,5.557-7.43,8.292c0.985,3.448,1.806,6.721,2.463,9.812
				c0.656,3.092,0.93,5.871,0.82,8.333c-0.055,1.369-0.408,2.902-1.067,4.598c-0.657,1.696-1.602,3.297-2.833,4.804
				c-1.229,1.504-2.749,2.763-4.555,3.777c-1.808,1.011-3.86,1.49-6.159,1.436c-2.738-0.11-4.79-0.972-6.158-2.586
				c-1.366-1.615-2.053-4.175-2.053-7.677c0-1.205,0.316-2.503,0.945-3.9c0.628-1.396,1.477-2.874,2.545-4.433
				c1.067-1.56,2.34-3.217,3.818-4.968c1.478-1.753,3.065-3.584,4.763-5.5c-0.823-3.503-1.753-7.226-2.793-11.167
				c-1.04-3.941-2.012-7.745-2.914-11.413c-0.903-3.667-1.629-7.021-2.177-10.059C264.567,181.76,264.377,179.338,264.54,177.532z
				 M275.297,232.132c0.053-1.259-0.056-2.832-0.33-4.722c-0.274-1.888-0.657-3.982-1.148-6.28
				c-2.627,3.119-4.804,6.034-6.527,8.744c-1.725,2.709-2.643,5.158-2.751,7.348c-0.056,0.71,0.027,1.423,0.245,2.135
				c0.22,0.71,0.562,1.355,1.027,1.93c0.464,0.575,1.013,1.039,1.643,1.396c0.628,0.355,1.354,0.506,2.176,0.452
				c1.039-0.056,1.9-0.438,2.585-1.15c0.686-0.712,1.245-1.601,1.685-2.668c0.438-1.067,0.766-2.231,0.984-3.49
				C275.104,234.568,275.241,233.336,275.297,232.132z"/>
			<path fill="#C70039" d="M278.415,155.528c0.769-0.11,1.273-0.055,1.52,0.163c0.247,0.22,0.398,0.384,0.452,0.493
				c0.329,0.768,0.465,1.178,0.409,1.232c-0.053,0.055-0.024,0.082,0.083,0.082c0.055,0,0.616-0.124,1.684-0.369
				c1.066-0.247,2.477-0.561,4.229-0.945c1.752-0.382,3.749-0.833,5.994-1.354c2.243-0.52,4.568-1.027,6.979-1.519
				c0.438-3.339,0.875-6.047,1.313-8.129c0.437-2.08,0.766-3.173,0.986-3.284c0.438-0.273,1.052-0.423,1.845-0.451
				c0.795-0.027,1.574,0.042,2.343,0.205c0.765,0.165,1.437,0.383,2.011,0.657c0.575,0.274,0.916,0.574,1.025,0.903
				c0,0.11-0.08,0.89-0.245,2.34c-0.164,1.45-0.384,3.407-0.658,5.87c3.23-0.657,6.077-1.203,8.54-1.643
				c2.463-0.437,4.105-0.683,4.925-0.738c1.097-0.054,2.066,0.123,2.916,0.534c0.848,0.411,1.298,1.383,1.354,2.914
				c0.054,1.15-0.315,2.135-1.109,2.957c-0.791,0.821-1.82,1.232-3.077,1.232c-0.438,0-0.809-0.136-1.108-0.411
				c-0.303-0.273-0.521-0.587-0.656-0.944c-0.138-0.355-0.179-0.739-0.124-1.149s0.218-0.726,0.491-0.945
				c-0.109-0.164-0.505-0.217-1.19-0.164c-0.684,0.055-1.588,0.164-2.708,0.328c-1.123,0.164-2.423,0.398-3.9,0.698
				c-1.479,0.302-3.067,0.616-4.762,0.944c-0.383,3.504-0.795,7.513-1.232,12.028c-0.438,4.516-0.82,9.101-1.148,13.753
				c-0.328,4.653-0.549,9.224-0.656,13.712c-0.11,4.488-0.056,8.456,0.163,11.905c0.217,3.449,0.656,6.227,1.313,8.334
				c0.656,2.107,1.613,3.107,2.873,2.997c1.15-0.054,2.313-0.78,3.49-2.176c1.176-1.396,2.325-3.188,3.447-5.378
				c1.123-2.189,2.204-4.639,3.243-7.349c1.039-2.709,2.026-5.391,2.956-8.046c0.932-2.654,1.767-5.144,2.505-7.472
				c0.74-2.325,1.354-4.229,1.848-5.706c0.219-0.602,0.628-0.862,1.231-0.78c0.602,0.082,0.957,0.451,1.067,1.108
				c0.054,0.22-0.164,1.342-0.656,3.367c-0.492,2.025-1.179,4.488-2.053,7.389c-0.877,2.902-1.945,6.022-3.202,9.36
				c-1.261,3.339-2.643,6.432-4.147,9.278c-1.506,2.847-3.106,5.2-4.803,7.061c-1.698,1.861-3.449,2.763-5.256,2.71
				c-2.407-0.056-4.393-1.15-5.951-3.285c-1.56-2.134-2.792-4.938-3.695-8.416c-0.902-3.475-1.491-7.443-1.765-11.905
				c-0.274-4.461-0.37-9.059-0.288-13.794c0.083-4.734,0.314-9.415,0.698-14.041c0.385-4.624,0.821-8.853,1.314-12.684
				c-2.191,0.492-4.312,0.984-6.365,1.478c-2.052,0.492-3.886,0.943-5.5,1.354c-1.613,0.41-2.955,0.739-4.021,0.984
				c-1.069,0.247-1.685,0.398-1.849,0.452c-0.875,0.109-1.602,0.096-2.176-0.042c-0.575-0.136-1.055-0.329-1.437-0.575
				c-0.383-0.245-0.671-0.546-0.862-0.902c-0.192-0.355-0.314-0.669-0.371-0.944c-0.163-0.711-0.107-1.409,0.165-2.094
				C277.13,156.034,277.649,155.638,278.415,155.528z"/>
			<path fill="#C70039" d="M327.433,171.21c0.438-0.274,1.04-0.423,1.807-0.451c0.765-0.027,1.532,0.041,2.299,0.205
				c0.768,0.164,1.45,0.384,2.054,0.656c0.601,0.275,0.93,0.575,0.984,0.903c0.054,0.165-0.028,1-0.247,2.504
				c-0.22,1.506-0.491,3.448-0.82,5.83c-0.328,2.38-0.657,5.049-0.984,8.005c-0.329,2.956-0.604,5.952-0.822,8.991
				c-0.219,3.037-0.357,6.007-0.409,8.908c-0.056,2.902,0.067,5.474,0.369,7.718c0.3,2.245,0.793,4.037,1.477,5.377
				c0.685,1.341,1.656,1.957,2.915,1.848c1.314-0.11,2.613-0.972,3.9-2.586c1.285-1.614,2.531-3.654,3.735-6.117
				c1.203-2.464,2.354-5.214,3.45-8.252c1.093-3.038,2.105-6.021,3.037-8.949c0.929-2.928,1.764-5.652,2.504-8.169
				c0.739-2.517,1.356-4.517,1.847-5.994c0.219-0.602,0.629-0.862,1.233-0.78c0.601,0.082,0.955,0.451,1.065,1.108
				c0.055,0.164-0.04,0.891-0.287,2.176c-0.246,1.286-0.603,2.942-1.065,4.967c-0.468,2.026-1.057,4.31-1.766,6.855
				c-0.713,2.545-1.534,5.146-2.464,7.8c-0.93,2.655-1.959,5.242-3.08,7.759c-1.121,2.518-2.326,4.762-3.611,6.733
				c-1.286,1.97-2.668,3.571-4.146,4.803c-1.477,1.231-3.012,1.874-4.599,1.93c-2.519,0.108-4.596-0.563-6.239-2.012
				c-1.642-1.451-2.929-3.407-3.858-5.87c-0.934-2.464-1.562-5.282-1.89-8.457c-0.329-3.174-0.48-6.446-0.451-9.812
				c0.025-3.366,0.217-6.664,0.575-9.893c0.354-3.229,0.752-6.144,1.189-8.745c0.438-2.599,0.875-4.721,1.313-6.363
				C326.887,172.195,327.214,171.32,327.433,171.21z M334.165,149.944c0.986,0.111,1.767,0.384,2.341,0.821
				c0.575,0.439,1.026,0.932,1.355,1.478c0.327,0.548,0.531,1.123,0.614,1.724c0.083,0.603,0.124,1.15,0.124,1.642
				c-0.055,1.26-0.287,2.299-0.698,3.12c-0.41,0.821-0.903,1.45-1.477,1.888c-0.576,0.439-1.204,0.711-1.89,0.821
				c-0.685,0.11-1.301,0.11-1.847,0c-0.821-0.164-1.466-0.52-1.93-1.067c-0.467-0.547-0.809-1.15-1.026-1.807
				c-0.22-0.657-0.329-1.341-0.329-2.053c0-0.71,0.055-1.366,0.165-1.971c0.218-0.874,0.546-1.627,0.985-2.257
				c0.438-0.628,0.888-1.122,1.354-1.478s0.917-0.602,1.356-0.739C333.7,149.932,334.001,149.891,334.165,149.944z"/>
		</g>
	</g>
	<g>
		<path fill="#900C3F" d="M181.523,270.209c0.472-0.142,1.037-0.211,1.699-0.211c0.66,0,1.274,0.069,1.839,0.211
			c0.567,0.142,1.015,0.308,1.346,0.496c0.33,0.189,0.4,0.379,0.212,0.564c-1.793,1.889-3.186,4.061-4.176,6.512
			c-0.991,2.456-1.627,4.933-1.911,7.432c-0.283,2.502-0.237,4.885,0.141,7.148c0.378,2.267,1.015,4.131,1.912,5.592
			c0.283,0.521,0.413,0.99,0.389,1.416c-0.024,0.425-0.166,0.742-0.424,0.955c-0.26,0.214-0.614,0.282-1.062,0.214
			c-0.449-0.073-0.909-0.343-1.379-0.815c-1.229-1.179-2.125-2.69-2.69-4.529c-0.567-1.841-0.944-3.656-1.133-5.45
			c-0.236-2.074-0.283-4.221-0.142-6.441c-0.945,0.567-1.888,1.134-2.832,1.699c-0.802,0.521-1.71,1.051-2.724,1.594
			c-1.015,0.543-1.994,1.074-2.937,1.591c-0.425,4.909-0.897,9.837-1.416,14.794c-0.52,4.954-0.933,9.577-1.239,13.87
			c-0.307,4.295-0.448,8.069-0.424,11.325c0.023,3.256,0.341,5.638,0.955,7.148c0.236,0.612,0.071,1.121-0.495,1.521
			c-0.566,0.4-1.274,0.636-2.124,0.708c-0.848,0.07-1.71-0.035-2.583-0.32c-0.874-0.281-1.498-0.803-1.876-1.556
			c-0.614-1.228-0.99-3.008-1.132-5.345c-0.142-2.334-0.142-4.928,0-7.784c0.142-2.854,0.365-5.839,0.672-8.953
			s0.638-6.053,0.991-8.812c0.354-2.76,0.695-5.189,1.027-7.29c0.329-2.1,0.542-3.598,0.636-4.494
			c0.094-0.896,0.059-2.028-0.106-3.398c-0.166-1.366-0.566-2.817-1.203-4.351c-0.637-1.533-1.511-3.066-2.619-4.602
			c-1.109-1.532-2.524-2.926-4.247-4.176c-1.723-1.249-3.775-2.275-6.157-3.079c-2.383-0.802-5.179-1.226-8.387-1.272
			c-0.521,0-0.85-0.154-0.991-0.461c-0.143-0.307-0.177-0.648-0.107-1.025c0.07-0.378,0.201-0.755,0.389-1.134
			c0.188-0.377,0.354-0.613,0.496-0.709c0.094-0.045,0.79-0.552,2.088-1.52c1.297-0.967,3.055-2.159,5.273-3.576
			c2.217-1.414,4.836-2.982,7.855-4.704c3.02-1.723,6.288-3.374,9.803-4.954c3.515-1.58,7.219-2.997,11.113-4.248
			c3.892-1.249,7.808-2.123,11.748-2.619c3.939-0.496,7.856-0.506,11.749-0.035c3.893,0.472,7.608,1.604,11.147,3.396
			c0.754,0.378,1.097,0.944,1.026,1.699c-0.071,0.756-0.354,1.476-0.85,2.158c-0.495,0.686-1.097,1.238-1.805,1.663
			c-0.708,0.426-1.345,0.521-1.911,0.283c-3.067-1.274-6.182-2.135-9.342-2.584c-3.162-0.448-6.324-0.576-9.484-0.388
			c-3.162,0.188-6.276,0.613-9.342,1.272c-3.068,0.662-5.993,1.488-8.777,2.478c0.33,1.37,0.566,3.021,0.708,4.954
			c0.141,1.937,0.2,4.083,0.177,6.442c-0.024,2.358-0.118,4.895-0.283,7.607c-0.166,2.713-0.367,5.509-0.603,8.387
			c0.896-0.519,1.817-1.062,2.761-1.628s1.828-1.107,2.654-1.627s1.509-0.979,2.053-1.382c0.542-0.399,0.86-0.695,0.956-0.884
			c0.566-1.178,1.049-2.264,1.451-3.254c0.4-0.993,0.79-1.877,1.167-2.656c0.377-0.777,0.754-1.415,1.132-1.91
			C180.556,270.67,181.003,270.351,181.523,270.209z M161.777,286.982c0-0.142,0.082-0.779,0.248-1.909
			c0.165-1.133,0.342-2.536,0.531-4.213c0.188-1.674,0.389-3.538,0.601-5.591c0.212-2.054,0.4-4.104,0.566-6.157
			c0.165-2.053,0.283-3.999,0.354-5.839c0.07-1.842,0.082-3.398,0.035-4.671c-3.068,1.228-5.851,2.512-8.352,3.857
			c-2.501,1.345-4.635,2.583-6.405,3.715s-3.091,2.087-3.963,2.868c-0.874,0.778-1.192,1.189-0.956,1.237
			c3.114,0.804,5.697,1.804,7.75,3.009c2.053,1.201,3.716,2.452,4.99,3.751c1.273,1.298,2.229,2.582,2.866,3.857
			c0.637,1.272,1.073,2.395,1.31,3.36c0.235,0.968,0.354,1.712,0.354,2.229C161.706,287.007,161.729,287.173,161.777,286.982z"/>
		<path fill="#900C3F" d="M187.892,318.054c-0.99-4.435-1.12-8.163-0.389-11.183c0.732-3.02,1.829-5.472,3.292-7.36v-0.708
			c0.046-0.565,0.106-1.426,0.177-2.584c0.071-1.155,0.365-2.393,0.885-3.715c0.518-1.32,1.356-2.584,2.512-3.785
			c1.156-1.206,2.867-2.137,5.132-2.797c2.312-0.661,4.423-0.602,6.334,0.177s3.539,1.922,4.884,3.434
			c1.344,1.511,2.406,3.171,3.185,4.988c0.778,1.817,1.214,3.433,1.309,4.849c0.094,1.463,0.094,2.879,0,4.245
			c-0.095,1.37-0.283,2.715-0.565,4.035c1.368-0.802,2.677-1.732,3.928-2.797c1.25-1.06,2.406-2.181,3.467-3.359
			c1.063-1.181,1.993-2.383,2.796-3.61c0.802-1.227,1.416-2.431,1.84-3.609c0.142-0.426,0.4-0.732,0.778-0.921
			c0.377-0.188,0.744-0.258,1.097-0.211c0.354,0.048,0.625,0.211,0.814,0.496c0.188,0.281,0.165,0.706-0.071,1.272
			c-1.982,4.483-4.377,8.187-7.184,11.111c-2.808,2.926-5.722,5.05-8.741,6.37c-0.707,1.936-1.533,3.716-2.477,5.345
			c-0.944,1.626-1.947,3.076-3.008,4.352c-1.062,1.274-2.147,2.335-3.255,3.186c-1.109,0.85-2.16,1.439-3.15,1.769
			c-1.793,0.566-3.457,0.662-4.99,0.283c-1.534-0.377-2.89-1.038-4.069-1.98c-1.18-0.944-2.158-2.077-2.937-3.398
			C188.707,320.627,188.175,319.326,187.892,318.054z M207.568,313.878c-1.935,0.189-3.656,0.118-5.167-0.212
			c-1.511-0.329-2.843-0.814-3.999-1.451c-1.157-0.636-2.171-1.404-3.043-2.3c-0.874-0.896-1.593-1.841-2.159-2.832
			c-0.567,1.37-0.968,2.88-1.203,4.53c-0.237,1.652-0.189,3.42,0.142,5.31c0.141,0.66,0.389,1.438,0.744,2.335
			c0.354,0.896,0.884,1.71,1.592,2.441s1.627,1.25,2.761,1.557c1.132,0.307,2.548,0.176,4.246-0.389
			c1.133-0.377,2.335-1.381,3.609-3.008c1.274-1.628,2.382-3.646,3.327-6.053c-0.142,0-0.283,0.013-0.425,0.035
			C207.851,313.867,207.709,313.878,207.568,313.878z M198.934,293.353c0.566-0.284,1.072-0.258,1.522,0.071
			c0.448,0.329,0.801,0.755,1.062,1.273c0.258,0.521,0.4,1.038,0.425,1.558c0.023,0.52-0.106,0.851-0.39,0.99
			c-0.142,0.097-0.449,0.296-0.92,0.603c-0.472,0.308-1.002,0.731-1.593,1.273c-0.589,0.541-1.238,1.191-1.945,1.947
			c-0.708,0.754-1.37,1.604-1.983,2.546c0.425,0.992,0.967,1.938,1.629,2.833c0.659,0.896,1.461,1.663,2.406,2.3
			c0.943,0.638,2.053,1.108,3.326,1.415c1.274,0.309,2.736,0.39,4.389,0.247c1.038-0.094,1.958-0.257,2.76-0.494
			c0.471-1.841,0.754-3.751,0.85-5.733c0.094-1.981-0.047-3.964-0.425-5.944c-0.048-0.235-0.13-0.874-0.248-1.911
			c-0.118-1.037-0.46-2.088-1.026-3.15c-0.567-1.063-1.451-1.911-2.654-2.548s-2.866-0.672-4.99-0.105
			c-0.472,0.142-1.039,0.365-1.698,0.673c-0.662,0.306-1.322,0.706-1.982,1.202s-1.273,1.039-1.84,1.628
			c-0.566,0.59-0.99,1.238-1.273,1.946c0.99-0.753,1.911-1.332,2.761-1.733C197.942,293.837,198.556,293.541,198.934,293.353z"/>
		<path fill="#900C3F" d="M228.518,253.294c0.377-0.236,0.896-0.365,1.557-0.389c0.66-0.025,1.32,0.035,1.981,0.176
			c0.661,0.142,1.25,0.332,1.77,0.567c0.519,0.237,0.802,0.494,0.849,0.778c0.047,0.142-0.071,1.321-0.354,3.537
			c-0.283,2.221-0.637,5.086-1.062,8.601c-0.425,3.515-0.884,7.49-1.38,11.925c-0.496,4.437-0.945,8.966-1.345,13.589
			c-0.401,4.625-0.708,9.131-0.921,13.519c-0.212,4.388-0.271,8.293-0.176,11.714c0.093,3.422,0.4,6.156,0.919,8.21
			c0.519,2.054,1.321,3.054,2.406,3.008c0.992-0.049,1.958-0.754,2.902-2.124c0.944-1.366,1.828-3.124,2.653-5.271
			c0.825-2.146,1.604-4.53,2.337-7.148c0.73-2.619,1.391-5.202,1.981-7.751c0.589-2.547,1.108-4.919,1.557-7.112
			c0.448-2.193,0.814-3.928,1.097-5.202c0.095-0.518,0.413-0.743,0.956-0.673c0.542,0.071,0.885,0.366,1.026,0.886
			c0.047,0.142-0.011,0.778-0.176,1.909c-0.166,1.133-0.414,2.597-0.743,4.39c-0.331,1.792-0.732,3.798-1.204,6.017
			c-0.473,2.217-1.026,4.482-1.664,6.794c-0.636,2.313-1.344,4.564-2.123,6.758c-0.778,2.194-1.628,4.142-2.548,5.84
			c-0.919,1.699-1.9,3.066-2.937,4.105c-1.039,1.037-2.146,1.531-3.326,1.486c-1.746-0.049-3.208-0.802-4.388-2.266
			c-1.179-1.461-2.135-3.441-2.866-5.944c-0.732-2.502-1.263-5.401-1.592-8.706c-0.331-3.302-0.521-6.805-0.567-10.509
			c-0.047-3.704,0.036-7.526,0.248-11.467c0.212-3.939,0.495-7.761,0.849-11.466c0.354-3.702,0.743-7.219,1.168-10.545
			c0.424-3.326,0.837-6.252,1.238-8.777c0.4-2.522,0.778-4.541,1.133-6.051C228.128,254.19,228.376,253.389,228.518,253.294z"/>
		<path fill="#900C3F" d="M244.866,285.001c0.377-0.235,0.896-0.365,1.558-0.388c0.661-0.025,1.32,0.034,1.981,0.175
			c0.661,0.143,1.25,0.331,1.77,0.567c0.518,0.236,0.801,0.496,0.849,0.777c0.047,0.143-0.024,0.863-0.213,2.159
			c-0.188,1.299-0.425,2.973-0.708,5.025c-0.283,2.053-0.566,4.354-0.849,6.9c-0.283,2.548-0.52,5.132-0.708,7.751
			c-0.189,2.618-0.308,5.178-0.354,7.679c-0.047,2.501,0.058,4.719,0.318,6.652c0.259,1.937,0.684,3.48,1.275,4.636
			c0.589,1.156,1.427,1.687,2.512,1.593c1.133-0.096,2.253-0.837,3.362-2.229c1.107-1.392,2.183-3.149,3.221-5.273
			c1.037-2.123,2.026-4.494,2.972-7.113c0.943-2.618,1.815-5.19,2.619-7.715c0.802-2.523,1.521-4.872,2.159-7.042
			c0.637-2.169,1.167-3.893,1.592-5.167c0.188-0.52,0.541-0.743,1.062-0.672c0.519,0.071,0.826,0.389,0.921,0.956
			c0.046,0.141-0.036,0.768-0.248,1.876c-0.214,1.108-0.52,2.537-0.921,4.281c-0.4,1.746-0.908,3.716-1.521,5.909
			c-0.615,2.194-1.322,4.437-2.124,6.725c-0.802,2.289-1.688,4.519-2.653,6.688c-0.969,2.171-2.005,4.105-3.115,5.804
			c-1.108,1.7-2.3,3.079-3.573,4.141c-1.274,1.062-2.596,1.616-3.965,1.663c-2.17,0.095-3.962-0.484-5.378-1.735
			c-1.416-1.249-2.524-2.936-3.326-5.059c-0.803-2.123-1.345-4.554-1.628-7.29c-0.283-2.736-0.414-5.557-0.389-8.458
			c0.023-2.9,0.188-5.743,0.495-8.528c0.307-2.783,0.648-5.297,1.026-7.538c0.377-2.241,0.754-4.069,1.133-5.484
			C244.394,285.852,244.677,285.096,244.866,285.001z M250.671,266.67c0.849,0.095,1.521,0.331,2.017,0.709
			c0.495,0.377,0.885,0.803,1.168,1.272c0.283,0.473,0.46,0.969,0.53,1.487c0.071,0.521,0.106,0.991,0.106,1.414
			c-0.048,1.087-0.248,1.983-0.602,2.691c-0.354,0.707-0.778,1.251-1.273,1.626c-0.496,0.379-1.039,0.615-1.629,0.709
			c-0.589,0.095-1.121,0.095-1.593,0c-0.707-0.143-1.262-0.447-1.662-0.92c-0.401-0.471-0.697-0.991-0.884-1.557
			c-0.19-0.566-0.284-1.157-0.284-1.77s0.046-1.18,0.141-1.698c0.188-0.755,0.471-1.403,0.85-1.946
			c0.377-0.543,0.766-0.968,1.167-1.274c0.4-0.307,0.79-0.519,1.168-0.638C250.269,266.66,250.529,266.623,250.671,266.67z"/>
		<path fill="#900C3F" d="M278.131,287.832c2.312-0.094,4.094,0.309,5.344,1.203c1.249,0.897,2.169,1.971,2.76,3.221
			c0.589,1.25,0.921,2.489,0.99,3.716c0.072,1.229,0.084,2.1,0.037,2.618c-0.237,1.936-0.732,3.587-1.486,4.954
			c-0.756,1.37-1.652,2.503-2.69,3.397c-1.038,0.897-2.171,1.605-3.396,2.124c-1.228,0.52-2.432,0.909-3.61,1.168
			c-1.181,0.26-2.289,0.413-3.327,0.46c-1.039,0.049-1.889,0.07-2.547,0.07c0.141,1.935,0.436,3.764,0.883,5.485
			c0.45,1.723,1.051,3.231,1.806,4.529c0.754,1.298,1.639,2.313,2.654,3.046c1.014,0.729,2.158,1.05,3.433,0.955
			c1.273-0.095,2.584-0.815,3.928-2.16c1.345-1.346,2.643-3.044,3.894-5.097c1.249-2.052,2.452-4.293,3.609-6.723
			c1.155-2.431,2.193-4.789,3.113-7.078c0.921-2.287,1.699-4.363,2.335-6.229c0.638-1.863,1.098-3.22,1.382-4.069
			c0.046-0.187,0.222-0.319,0.53-0.391c0.307-0.068,0.612-0.068,0.92,0c0.308,0.071,0.565,0.204,0.778,0.391
			c0.212,0.188,0.248,0.449,0.107,0.778c-0.096,0.236-0.32,0.933-0.673,2.088c-0.354,1.156-0.826,2.584-1.416,4.283
			c-0.591,1.697-1.274,3.608-2.052,5.731c-0.779,2.123-1.665,4.271-2.656,6.441c-0.989,2.172-2.039,4.271-3.148,6.298
			c-1.108,2.031-2.3,3.84-3.574,5.43c-1.273,1.591-2.583,2.878-3.928,3.857c-1.345,0.98-2.75,1.447-4.212,1.401
			c-2.5-0.049-4.646-0.683-6.439-1.901c-1.793-1.223-3.28-2.804-4.459-4.743c-1.181-1.939-2.029-4.137-2.548-6.592
			c-0.521-2.454-0.743-4.965-0.673-7.537c0.071-2.57,0.437-5.096,1.097-7.573c0.66-2.477,1.592-4.707,2.796-6.688
			c1.204-1.98,2.677-3.596,4.425-4.848C273.859,288.6,275.866,287.927,278.131,287.832z M278.414,290.38
			c-1.463,0.237-2.737,0.92-3.821,2.053c-1.087,1.132-1.972,2.56-2.654,4.282c-0.685,1.723-1.181,3.634-1.486,5.733
			c-0.308,2.099-0.414,4.235-0.319,6.404c0.613,0,1.521-0.059,2.726-0.177c1.202-0.118,2.418-0.507,3.646-1.169
			c1.225-0.659,2.347-1.674,3.361-3.042s1.662-3.256,1.946-5.662c0.188-1.934,0.178-3.469-0.035-4.601
			c-0.212-1.134-0.507-1.993-0.885-2.584c-0.379-0.589-0.803-0.954-1.274-1.096C279.145,290.38,278.744,290.335,278.414,290.38z"/>
	</g>
	<g>
		<path fill="#424242" d="M91.175,297.123l5.502-1.617l-1.672-5.688l1.138-0.335l1.671,5.687l5.563-1.634l-1.854-6.308l1.199-0.354
			l2.286,7.776l-14.582,4.285l-2.286-7.776l1.179-0.347L91.175,297.123z"/>
		<path fill="#424242" d="M99.455,271.39l0.291,1.503l-10.89,10.576l12.467-2.406l0.291,1.503l-14.902,2.875l-0.29-1.503
			l10.911-10.58l-12.489,2.41l-0.29-1.503L99.455,271.39z"/>
		<path fill="#424242" d="M91.144,249.803c0.665-0.617,1.472-0.944,2.42-0.983c1.221-0.05,2.224,0.327,3.012,1.128
			c0.788,0.802,1.214,1.993,1.279,3.573l0.215,5.276l-15.186,0.619l-0.212-5.212c-0.062-1.521,0.232-2.682,0.883-3.478
			c0.65-0.795,1.551-1.217,2.7-1.265c0.991-0.04,1.795,0.193,2.412,0.7c0.619,0.508,1.038,1.173,1.258,1.997
			C90.072,251.206,90.479,250.42,91.144,249.803z M89.607,257.611l-0.143-3.49c-0.043-1.063-0.324-1.859-0.841-2.394
			c-0.518-0.53-1.208-0.78-2.07-0.744c-0.847,0.034-1.503,0.334-1.969,0.899c-0.466,0.567-0.676,1.417-0.63,2.55l0.139,3.404
			L89.607,257.611z M95.678,251.215c-0.55-0.611-1.292-0.897-2.224-0.858c-0.919,0.037-1.636,0.39-2.147,1.058
			c-0.512,0.669-0.745,1.57-0.699,2.704l0.14,3.445l5.967-0.242l-0.143-3.489C96.526,252.698,96.228,251.825,95.678,251.215z"/>
		<path fill="#424242" d="M83.99,232.673c0.733-1.075,1.709-1.892,2.928-2.453c1.218-0.56,2.573-0.791,4.064-0.692
			c1.491,0.099,2.808,0.507,3.948,1.223c1.142,0.717,2.005,1.656,2.59,2.819c0.586,1.161,0.832,2.445,0.739,3.85
			c-0.093,1.406-0.505,2.646-1.239,3.721s-1.713,1.893-2.939,2.453c-1.225,0.56-2.583,0.79-4.075,0.691
			c-1.49-0.099-2.804-0.505-3.937-1.221c-1.134-0.716-1.994-1.656-2.579-2.817c-0.586-1.162-0.833-2.446-0.739-3.852
			C82.843,234.989,83.257,233.748,83.99,232.673z M84.725,239.517c0.459,0.916,1.151,1.66,2.078,2.233
			c0.927,0.572,2.029,0.901,3.305,0.985c1.277,0.085,2.412-0.096,3.406-0.542c0.995-0.445,1.78-1.092,2.354-1.94
			c0.574-0.848,0.898-1.823,0.971-2.928c0.074-1.104-0.119-2.114-0.577-3.031c-0.458-0.915-1.15-1.66-2.079-2.233
			c-0.926-0.572-2.028-0.901-3.304-0.986c-1.276-0.084-2.412,0.097-3.407,0.542c-0.994,0.446-1.779,1.093-2.354,1.94
			c-0.574,0.848-0.898,1.824-0.972,2.929C84.075,237.591,84.268,238.6,84.725,239.517z"/>
		<path fill="#424242" d="M84.533,221.471l9.058,1.635c1.599,0.289,2.835,0.15,3.711-0.415c0.877-0.564,1.424-1.454,1.644-2.671
			c0.22-1.216,0.017-2.234-0.609-3.056c-0.626-0.822-1.737-1.376-3.336-1.666l-9.058-1.635l0.268-1.485l9.059,1.636
			c2.022,0.365,3.448,1.125,4.275,2.283c0.829,1.158,1.094,2.557,0.798,4.197c-0.296,1.64-1.034,2.858-2.215,3.653
			c-1.18,0.794-2.781,1.009-4.804,0.644l-9.058-1.635L84.533,221.471z"/>
		<path fill="#424242" d="M104.562,202.194l-7.233,2.273l-0.671,2.364l6.097,1.731l-0.418,1.472l-14.62-4.15l1.271-4.479
			c0.466-1.645,1.202-2.762,2.207-3.351c1.004-0.59,2.162-0.698,3.476-0.325c1.216,0.346,2.087,0.963,2.611,1.851
			c0.525,0.889,0.672,2.003,0.441,3.341l7.31-2.384L104.562,202.194z M95.559,206.519l0.824-2.903
			c0.667-2.351-0.015-3.815-2.048-4.391c-2.075-0.589-3.444,0.292-4.112,2.642L89.4,204.77L95.559,206.519z"/>
		<path fill="#424242" d="M97.502,180.906c1.247-0.783,2.64-1.104,4.179-0.963l-0.588,1.459c-1.093-0.022-2.104,0.278-3.039,0.901
			c-0.932,0.623-1.636,1.521-2.109,2.693c-0.409,1.013-0.539,2.026-0.39,3.04c0.148,1.012,0.575,1.933,1.28,2.759
			c0.705,0.827,1.65,1.48,2.835,1.959c1.214,0.489,2.361,0.678,3.445,0.565c1.084-0.113,2.034-0.489,2.85-1.128
			c0.816-0.639,1.439-1.492,1.87-2.558c0.382-0.945,0.521-1.896,0.419-2.852c-0.103-0.956-0.455-1.838-1.058-2.648
			c-0.603-0.809-1.429-1.471-2.476-1.987l-2.365,5.856l-1.059-0.428l2.857-7.076l1.24,0.5c1.161,0.578,2.104,1.35,2.831,2.317
			c0.725,0.967,1.167,2.052,1.324,3.254c0.158,1.203-0.017,2.431-0.522,3.683c-0.538,1.333-1.32,2.397-2.346,3.191
			c-1.026,0.794-2.202,1.259-3.526,1.39c-1.324,0.132-2.679-0.082-4.065-0.641c-1.386-0.56-2.509-1.347-3.371-2.361
			s-1.387-2.16-1.577-3.438c-0.189-1.277-0.015-2.583,0.523-3.915C95.311,182.881,96.256,181.69,97.502,180.906z"/>
		<path fill="#424242" d="M106.16,163.119c1.121-0.66,2.353-0.984,3.693-0.973c1.341,0.012,2.665,0.38,3.972,1.104
			s2.325,1.654,3.052,2.788c0.726,1.134,1.108,2.352,1.142,3.653c0.036,1.301-0.288,2.568-0.972,3.799
			c-0.682,1.232-1.585,2.178-2.706,2.838c-1.121,0.66-2.356,0.983-3.703,0.967c-1.347-0.016-2.674-0.386-3.982-1.11
			c-1.307-0.724-2.321-1.652-3.042-2.783c-0.721-1.129-1.098-2.346-1.133-3.647c-0.035-1.301,0.288-2.566,0.972-3.799
			C104.136,164.725,105.039,163.779,106.16,163.119z M103.911,169.624c0.023,1.024,0.334,1.993,0.929,2.905
			c0.595,0.913,1.451,1.68,2.57,2.299c1.12,0.62,2.223,0.94,3.313,0.961c1.089,0.021,2.075-0.231,2.956-0.752
			c0.881-0.522,1.59-1.268,2.126-2.235c0.537-0.968,0.792-1.964,0.768-2.988c-0.024-1.024-0.333-1.992-0.929-2.905
			c-0.594-0.913-1.452-1.679-2.571-2.299c-1.118-0.62-2.223-0.94-3.313-0.96c-1.089-0.021-2.074,0.23-2.956,0.752
			c-0.88,0.521-1.59,1.267-2.126,2.234C104.143,167.604,103.887,168.6,103.911,169.624z"/>
		<path fill="#424242" d="M118.145,145.86c1.398-0.458,2.828-0.434,4.288,0.074l-0.923,1.273c-1.054-0.285-2.109-0.238-3.166,0.142
			c-1.056,0.378-1.955,1.081-2.698,2.104c-0.642,0.885-1.011,1.837-1.111,2.855c-0.1,1.02,0.092,2.016,0.576,2.988
			c0.484,0.973,1.245,1.834,2.279,2.585c1.059,0.768,2.128,1.228,3.207,1.38c1.079,0.152,2.092,0.017,3.039-0.407
			c0.945-0.423,1.756-1.1,2.431-2.031c0.599-0.826,0.964-1.715,1.095-2.667c0.132-0.953,0.001-1.893-0.388-2.825
			c-0.39-0.931-1.031-1.773-1.923-2.526l-3.708,5.113l-0.925-0.67l4.479-6.178l1.082,0.785c0.989,0.84,1.718,1.817,2.189,2.931
			c0.471,1.113,0.638,2.273,0.5,3.478c-0.137,1.206-0.602,2.355-1.395,3.448c-0.844,1.164-1.86,2.008-3.047,2.531
			c-1.188,0.524-2.44,0.69-3.756,0.499c-1.317-0.191-2.58-0.726-3.791-1.604c-1.209-0.878-2.111-1.912-2.701-3.104
			c-0.592-1.192-0.825-2.431-0.701-3.717c0.125-1.285,0.609-2.51,1.453-3.673C115.542,147.248,116.746,146.32,118.145,145.86z"/>
		<path fill="#424242" d="M141.805,139.93l-1.034,1.128l-14.984-2.43l9.369,8.569l-1.034,1.13l-11.197-10.243l1.033-1.13l15,2.445
			l-9.384-8.585l1.033-1.129L141.805,139.93z"/>
		<path fill="#424242" d="M137.233,125.024l3.85,4.25l4.394-3.979l0.796,0.878l-4.394,3.98l3.893,4.298l4.873-4.414l0.839,0.926
			l-6.007,5.441l-10.203-11.264l6.007-5.442l0.825,0.911L137.233,125.024z"/>
		<path fill="#424242" d="M159.1,106.305l0.699,1.01l-5.53,3.828l3.299,4.768l4.786-3.313l0.675,0.975l-4.785,3.313l3.975,5.744
			l-1.259,0.871l-8.65-12.496L159.1,106.305z"/>
		<path fill="#424242" d="M178.458,112.476l-6.755-3.442l-2.134,1.219l3.142,5.504l-1.329,0.759l-7.534-13.199l4.044-2.309
			c1.485-0.847,2.793-1.129,3.922-0.847c1.13,0.282,2.032,1.016,2.708,2.201c0.627,1.098,0.817,2.149,0.57,3.15
			c-0.248,1.002-0.923,1.9-2.024,2.694l6.888,3.416L178.458,112.476z M169.003,109.26l2.621-1.496
			c2.122-1.211,2.66-2.734,1.612-4.568c-1.068-1.873-2.664-2.203-4.785-0.992l-2.622,1.496L169.003,109.26z"/>
		<path fill="#424242" d="M190.196,102.748l-6.315,2.83l0.258,3.948l-1.476,0.661l-0.961-15.847l1.555-0.696l11.189,11.262
			l-1.495,0.669L190.196,102.748z M189.29,101.831l-6.085-6.249l0.577,8.718L189.29,101.831z"/>
		<path fill="#424242" d="M208.923,99.998l-1.454,0.475l-11.855-9.481l3.946,12.069l-1.455,0.475l-4.718-14.424l1.455-0.476
			l11.863,9.502l-3.954-12.089l1.455-0.475L208.923,99.998z"/>
		<path fill="#424242" d="M221.933,82.667c1.346,0.626,2.414,1.65,3.205,3.072l-1.563,0.321c-0.614-0.989-1.443-1.706-2.488-2.152
			c-1.045-0.446-2.244-0.53-3.596-0.252c-1.027,0.211-1.909,0.655-2.641,1.334c-0.734,0.68-1.244,1.54-1.529,2.581
			c-0.285,1.042-0.298,2.189-0.042,3.441c0.257,1.253,0.722,2.299,1.392,3.137c0.67,0.837,1.477,1.424,2.418,1.758
			c0.941,0.335,1.926,0.397,2.955,0.187c1.352-0.278,2.42-0.827,3.205-1.649c0.785-0.82,1.265-1.807,1.439-2.958l1.563-0.321
			c-0.167,1.619-0.745,2.981-1.735,4.087c-0.992,1.105-2.381,1.842-4.168,2.208c-1.366,0.281-2.65,0.207-3.853-0.221
			c-1.202-0.428-2.218-1.154-3.043-2.181c-0.828-1.025-1.391-2.271-1.692-3.735c-0.303-1.478-0.278-2.854,0.077-4.13
			c0.354-1.275,1-2.344,1.939-3.204c0.937-0.86,2.09-1.43,3.456-1.71C219.019,81.912,220.586,82.042,221.933,82.667z"/>
		<path fill="#424242" d="M241.571,79.176l1.363,15.137l-1.503,0.135l-0.646-7.17l-8.201,0.738l0.646,7.171l-1.524,0.137
			l-1.363-15.136l1.524-0.138l0.605,6.721l8.202-0.738l-0.605-6.721L241.571,79.176z"/>
		<path fill="#424242" d="M249.762,80.19l-0.094,5.733l5.928,0.096l-0.02,1.186l-5.928-0.096l-0.094,5.798l6.573,0.106l-0.021,1.25
			l-8.104-0.132l0.247-15.196l8.104,0.131l-0.021,1.229L249.762,80.19z"/>
		<path fill="#424242" d="M281.321,82.795c1.046,1.054,1.692,2.385,1.94,3.993l-1.578-0.241c-0.232-1.14-0.761-2.101-1.587-2.881
			c-0.825-0.78-1.92-1.275-3.283-1.483c-1.038-0.158-2.02-0.046-2.941,0.336c-0.923,0.383-1.7,1.013-2.328,1.891
			c-0.629,0.877-1.04,1.949-1.233,3.213c-0.191,1.265-0.119,2.406,0.219,3.425c0.339,1.018,0.893,1.848,1.659,2.488
			c0.768,0.641,1.67,1.04,2.708,1.198c1.362,0.208,2.555,0.064,3.575-0.435c1.021-0.499,1.814-1.257,2.376-2.275l1.578,0.241
			c-0.719,1.46-1.732,2.538-3.045,3.231c-1.313,0.694-2.872,0.903-4.676,0.627c-1.377-0.21-2.558-0.725-3.538-1.543
			c-0.979-0.818-1.679-1.853-2.099-3.101c-0.419-1.249-0.518-2.612-0.291-4.09c0.227-1.492,0.729-2.774,1.504-3.849
			c0.774-1.073,1.75-1.851,2.93-2.333c1.178-0.481,2.456-0.618,3.836-0.407C278.85,81.076,280.275,81.741,281.321,82.795z"/>
		<path fill="#424242" d="M300.274,87.034c0.9,0.938,1.502,2.063,1.799,3.37c0.3,1.307,0.246,2.68-0.154,4.119
			c-0.403,1.439-1.072,2.644-2.009,3.614c-0.936,0.969-2.031,1.622-3.289,1.956c-1.259,0.335-2.564,0.313-3.921-0.067
			c-1.357-0.379-2.485-1.038-3.387-1.977c-0.901-0.938-1.501-2.065-1.796-3.379c-0.298-1.314-0.245-2.69,0.158-4.13
			c0.403-1.439,1.07-2.641,2.006-3.604c0.932-0.962,2.027-1.611,3.285-1.946c1.258-0.334,2.565-0.312,3.921,0.068
			C298.243,85.436,299.373,86.096,300.274,87.034z M293.426,86.349c-0.991,0.26-1.862,0.785-2.611,1.575
			c-0.753,0.79-1.299,1.8-1.644,3.033c-0.344,1.231-0.402,2.38-0.17,3.444c0.233,1.065,0.705,1.965,1.416,2.702
			c0.711,0.736,1.601,1.254,2.665,1.552c1.066,0.297,2.095,0.317,3.086,0.057c0.989-0.26,1.859-0.785,2.612-1.575
			c0.749-0.79,1.298-1.8,1.644-3.032c0.344-1.231,0.4-2.38,0.167-3.445c-0.231-1.065-0.703-1.965-1.414-2.702
			c-0.712-0.736-1.602-1.253-2.667-1.551C295.444,86.108,294.418,86.089,293.426,86.349z"/>
		<path fill="#424242" d="M323.427,95.339l-5.778,13.706l-1.393-0.585l4.842-11.481l-9.589,9.48l-1.251-0.528l0.058-13.452
			l-4.825,11.443l-1.409-0.595l5.778-13.707l1.647,0.695l0.115,14.156l10.175-9.818L323.427,95.339z"/>
		<path fill="#424242" d="M337.271,102.438l-0.595,1.075l-3.79-2.097l-6.763,12.224l-1.32-0.73l6.762-12.224l-3.773-2.086
			l0.595-1.076L337.271,102.438z"/>
		<path fill="#424242" d="M342.24,107.038l-3.181,4.771l4.933,3.288l-0.657,0.987l-4.934-3.289l-3.216,4.825l5.473,3.647
			l-0.694,1.041l-6.745-4.496l8.43-12.646l6.745,4.496l-0.681,1.023L342.24,107.038z M350.062,106.5l-5.123-0.281l0.621-0.933
			l5.208,0.156L350.062,106.5z"/>
	</g>
	<g>
		<g>
			<path fill="#424242" d="M124.17,334.186l-1.051,0.682l-3.726-5.755l-4.961,3.213l3.224,4.98l-1.014,0.655l-3.224-4.98
				l-5.977,3.869l-0.848-1.309l13.004-8.419L124.17,334.186z"/>
			<path fill="#424242" d="M126.576,339.599l-4.636,3.558l3.679,4.794l-0.959,0.737l-3.679-4.795l-4.688,3.598l4.081,5.319
				l-1.012,0.774l-5.03-6.553l12.289-9.434l5.031,6.554l-0.994,0.763L126.576,339.599z"/>
			<path fill="#424242" d="M130.469,363.246c-0.682,0.175-1.398,0.137-2.148-0.11c-0.751-0.247-1.471-0.75-2.162-1.509
				c-0.671-0.735-1.132-1.514-1.385-2.334c-0.252-0.822-0.297-1.617-0.137-2.389c0.161-0.77,0.509-1.447,1.044-2.032l1.095,1.2
				c-0.297,0.349-0.519,0.779-0.667,1.291c-0.149,0.512-0.156,1.064-0.023,1.655c0.134,0.593,0.452,1.164,0.955,1.718
				c0.66,0.726,1.361,1.103,2.102,1.132c0.739,0.03,1.407-0.227,2.002-0.769c0.509-0.464,0.809-0.97,0.896-1.515
				c0.087-0.546,0.048-1.083-0.119-1.615c-0.167-0.531-0.443-1.214-0.83-2.053c-0.423-0.922-0.729-1.696-0.917-2.329
				c-0.188-0.63-0.216-1.286-0.079-1.963c0.134-0.679,0.544-1.327,1.227-1.95c0.866-0.788,1.846-1.126,2.94-1.014
				c1.094,0.115,2.125,0.701,3.091,1.763c0.986,1.083,1.503,2.184,1.549,3.3c0.047,1.117-0.271,2.095-0.954,2.933l-1.11-1.217
				c0.398-0.541,0.598-1.192,0.597-1.956c-0.001-0.761-0.331-1.506-0.992-2.23c-0.611-0.673-1.273-1.05-1.985-1.134
				c-0.711-0.086-1.375,0.153-1.993,0.715c-0.488,0.443-0.77,0.927-0.846,1.452c-0.077,0.527-0.03,1.044,0.138,1.556
				c0.167,0.509,0.435,1.174,0.801,1.988c0.433,0.933,0.746,1.724,0.939,2.369c0.193,0.646,0.214,1.325,0.069,2.033
				c-0.147,0.709-0.579,1.387-1.293,2.039C131.753,362.744,131.151,363.069,130.469,363.246z"/>
			<path fill="#424242" d="M150.661,363.814l-0.852,0.917l-3.239-3.004l-9.682,10.44l-1.128-1.045l9.682-10.44l-3.223-2.989
				l0.852-0.917L150.661,363.814z"/>
			<path fill="#424242" d="M154.881,367.244l-9.809,11.991l-1.208-0.988l9.809-11.989L154.881,367.244z"/>
			<path fill="#424242" d="M159.27,370.77l-3.803,14.066l11.996-8.298l1.384,0.973l-13.626,9.354l-1.563-1.102l4.229-15.969
				L159.27,370.77z"/>
			<path fill="#424242" d="M174.089,394.047l-6.146-3.462l-3.079,2.604l-1.437-0.808l12.406-10.388l1.513,0.851l-2.451,15.996
				l-1.455-0.821L174.089,394.047z M174.291,392.749l1.436-8.774l-6.797,5.756L174.291,392.749z"/>
			<path fill="#424242" d="M181.515,400.574l5.12,2.331l-0.51,1.119l-6.54-2.977l6.419-14.101l1.42,0.65L181.515,400.574z"/>
			<path fill="#424242" d="M199.883,407.162c-0.522,0.475-1.173,0.776-1.952,0.906c-0.78,0.131-1.652,0.021-2.616-0.328
				c-0.937-0.338-1.708-0.812-2.313-1.422c-0.607-0.606-1.017-1.289-1.234-2.045c-0.216-0.757-0.225-1.521-0.024-2.288l1.528,0.553
				c-0.1,0.446-0.096,0.932,0.012,1.453c0.106,0.521,0.357,1.014,0.751,1.477c0.394,0.46,0.942,0.818,1.644,1.072
				c0.924,0.334,1.719,0.343,2.388,0.022c0.668-0.317,1.14-0.854,1.415-1.613c0.234-0.647,0.262-1.233,0.087-1.757
				c-0.177-0.523-0.463-0.981-0.858-1.374c-0.396-0.393-0.959-0.869-1.691-1.431c-0.805-0.617-1.437-1.161-1.898-1.631
				c-0.459-0.472-0.79-1.039-0.985-1.702c-0.196-0.661-0.137-1.428,0.178-2.296c0.398-1.102,1.108-1.856,2.129-2.269
				c1.02-0.408,2.205-0.368,3.556,0.12c1.377,0.498,2.346,1.231,2.908,2.198c0.561,0.966,0.736,1.981,0.523,3.039l-1.55-0.561
				c0.101-0.663-0.027-1.334-0.383-2.007c-0.356-0.675-0.996-1.178-1.918-1.512c-0.854-0.31-1.616-0.337-2.285-0.079
				c-0.669,0.255-1.146,0.775-1.43,1.561c-0.225,0.62-0.249,1.181-0.071,1.681c0.178,0.5,0.459,0.937,0.846,1.311
				c0.387,0.374,0.931,0.837,1.636,1.388c0.819,0.624,1.463,1.177,1.936,1.659c0.472,0.482,0.807,1.07,1.008,1.767
				c0.2,0.695,0.136,1.498-0.194,2.406C200.785,406.123,200.404,406.689,199.883,407.162z"/>
		</g>
	</g>
	<g>
		<path fill="#900C3F" d="M250.432,461.986c-117.746,0-213.525-95.787-213.525-213.534c0-117.724,95.779-213.491,213.525-213.491
			c117.748,0,213.539,95.767,213.539,213.491C463.971,366.199,368.18,461.986,250.432,461.986z M250.432,37.638
			c-116.252,0-210.855,94.559-210.855,210.814c0,116.33,94.603,210.88,210.855,210.88c116.33,0,210.884-94.55,210.884-210.88
			C461.315,132.197,366.762,37.638,250.432,37.638z"/>
	</g>
	<g>
		<path fill="#900C3F" d="M249.955,450.494c-111.735,0-202.567-90.9-202.567-202.565c0-111.74,90.832-202.567,202.567-202.567
			c111.665,0,202.566,90.827,202.566,202.567C452.521,359.594,361.62,450.494,249.955,450.494z M249.955,61.361
			c-102.873,0-186.566,83.695-186.566,186.567c0,102.856,83.693,186.482,186.566,186.482c102.857,0,186.487-83.626,186.487-186.482
			C436.442,145.057,352.813,61.361,249.955,61.361z"/>
	</g>
	<g>
		<path fill-rule="evenodd" clip-rule="evenodd" fill="#FFC300" d="M377.525,49.378l-6.752,9.917l15.966,14.826
			c0,0-1.978-11.328,10.016-12.898c-2.862,0.583-8.726,2.925-10.016,12.898c0,0,0.018,0,0.034-0.026c0.018,0,0.034-0.02,0.07-0.036
			l1.814-1.119l0.037-0.02l3.146-1.931c0.105,0,0.105-0.017,0.184-0.017l4.485-2.72l1.014-3.794l0.943-3.416L377.525,49.378z
			 M384.61,69.771l-12.023-11.438l10.696,7.612c0,0,2.182-5.136,10.699-5.91C384.19,63.48,384.61,69.771,384.61,69.771z"/>
		<path fill-rule="evenodd" clip-rule="evenodd" fill="#FFC300" d="M398.467,61.042c-0.09,1.228-0.472,2.383-0.943,3.416
			c-1.29,2.724-3.507,4.921-5.499,6.514c-0.078,0-0.078,0.017-0.184,0.017c-0.982,0.806-1.943,1.438-2.799,1.95
			c-0.035,0.018-0.07,0.037-0.105,0.054c-1.112,0.596-1.744,0.912-2.093,1.065c-0.036,0.017-0.053,0.036-0.07,0.036
			c-0.017,0.026-0.034,0.026-0.034,0.026c1.29-9.973,7.153-12.315,10.016-12.898c0.386-0.05,0.752-0.131,1.082-0.131
			c0.211-0.049,0.523-0.049,0.594-0.049C398.447,61.042,398.467,61.042,398.467,61.042z"/>
		<path fill-rule="evenodd" clip-rule="evenodd" fill="#FFC300" d="M370.773,59.301c0,0-5.617-7.952-4.694-10.349
			c1.028-2.393,11.448,0.414,11.448,0.414l0.545,5.946L370.773,59.301z"/>
		<path fill-rule="evenodd" clip-rule="evenodd" fill="#FFC300" d="M404.609,71.82l-6.143-10.777c0,0-0.02,0-0.036,0
			c-0.07,0-0.383,0-0.594,0.049c-0.33,0-0.696,0.081-1.082,0.131c-2.862,0.583-8.726,2.925-10.016,12.898l13.489,4.344
			C400.229,78.465,397.854,71.466,404.609,71.82z M398.467,76.105l-9.53-3.112c0.035-0.018,0.07-0.037,0.105-0.054l8.282,0.705
			c0,0,1.161-2.737,4.963-3.323C400.245,71.423,398.307,72.679,398.467,76.105z M400.229,78.465c0,0,0,0,0.017-0.022l4.364-6.623
			C404.609,71.82,400.453,72.524,400.229,78.465z"/>
		<path fill-rule="evenodd" clip-rule="evenodd" fill="#FFC300" d="M404.609,71.82c-0.891,3.512-3.962,6.246-4.364,6.623
			c-0.017,0.022-0.017,0.022-0.017,0.022C400.453,72.524,404.609,71.82,404.609,71.82z"/>
		<path fill-rule="evenodd" clip-rule="evenodd" fill="#FFC300" d="M409.022,75.291c-1.762,1.656-3.437,3.625-4.938,5.807
			c-1.326-1.126-2.687-2.166-3.855-2.633c0.225-5.94,4.381-6.645,4.381-6.645L409.022,75.291z"/>
		<path fill-rule="evenodd" clip-rule="evenodd" fill="#FFC300" d="M412.164,77.772l-1.307,4.031l-0.02,0.018l-1.379,4.387
			c0,0-0.402-0.416-0.959-1.008v-0.035c-0.494-0.475-1.187-1.124-1.954-1.792c1.604-2.257,3.278-4.367,4.855-6.169L412.164,77.772z"
			/>
		<path fill-rule="evenodd" clip-rule="evenodd" fill="#FFC300" d="M370.773,59.301c0,0-2.53-7.743,6.754-9.936
			c-6.318,0.721-8.48,4.638-7.102,9.936H370.773z"/>
		<path fill-rule="evenodd" clip-rule="evenodd" fill="#FFC300" d="M389.042,72.939c-0.035,0.018-0.07,0.037-0.105,0.054
			l-0.278-0.054l-0.121-0.046l0.158,0.027L389.042,72.939z"/>
		<path fill-rule="evenodd" clip-rule="evenodd" fill="#FFC300" d="M364.979,243.99c-0.4,2.655,0.507,5.213,2.304,7.077
			c0.891-1.934,1.763-3.867,2.634-5.688v-0.018L364.979,243.99z M376.672,217.597c-0.418,2.797,0.714,5.485,2.601,7.271
			c0.906-1.985,1.796-3.841,2.688-5.757l0.017-0.017L376.672,217.597z M389.968,201.067l-5.427-1.505
			c-0.438,2.941,0.818,5.847,3.07,7.616c0.977-2.203,1.938-4.224,2.828-6.063c0,0,0-0.047,0.017-0.047
			C390.352,201.134,390.241,201.134,389.968,201.067z M399.287,183.277l-5.428-1.536c-0.419,2.835,0.576,5.562,2.688,7.441
			c0.942-1.916,1.938-3.884,3.104-5.872C399.571,183.311,399.357,183.294,399.287,183.277z M441.533,90.199
			c0.545-7.096-0.925-12.567-5.427-15.472c-2.234-1.458-4.38-2.556-6.308-3.34h-0.136c-0.919-0.415-1.778-0.692-2.498-0.939
			c-6.409-0.677-11.353,2.095-15.764,6.757c-1.577,1.802-3.251,3.912-4.855,6.169c-2.794,4.055-5.481,8.741-8.239,13.45
			c-3.96,6.584-6.751,12.778-8.427,18.179c-1.146,3.414-1.692,6.486-1.796,9.207c-0.315,4.909,0.923,8.629,3.629,10.566h0.017
			c0,0,0.019,0,0.019,0.031c0.018,0,0.018,0,0.018,0h0.017c0.313,0.088,1.17,0.469,2.441,0.755c0.925,0.301,1.991,0.505,3.334,0.634
			c0.945-0.252,1.623-0.634,1.71-0.687c0,0.053-0.051,0.354-0.202,0.764c0.972,0,1.912-0.038,2.89-0.131
			c2.671-0.336,5.742-1.22,8.865-3.106c2.705-1.698,5.485-4.135,8.334-7.655c-1.738,3.9-3.883,7.198-6.448,9.542
			c-2.269,2.198-4.903,3.657-7.767,4.007h-0.027c-1.038,0.135-1.979,0.152-2.938,0.083c-0.91,2.631-2.67,7.166-5.706,14.006
			c-1.467,3.522-3.299,7.676-5.57,12.488c-6.629,13.816-40.85,82.525-62.644,126.121v0.018c-0.35,0.621-0.527,1.194-0.874,1.716
			v0.02c-1.326,2.671-2.634,5.253-3.907,7.614v0.171c-0.177,0.538-0.507,1.042-0.855,1.563v0.017
			c-7.626,15.384-12.651,25.583-12.651,25.583l-5.707,4.024c0,0-16.788,25.564-27.626,53.472c-0.329,0.798-0.678,1.612-0.871,2.262
			c-1.326,3.497-2.582,7-3.576,10.503v0.019c-0.314,0.814-0.473,1.611-0.77,2.271c-3.647,12.767-5.338,25.149-2.757,34.966v0.132
			c0.383,1.428,0.839,2.8,1.362,4.119c-0.019,0.017-0.019,0.033,0,0.033c0.871,2.099,1.885,3.937,3.212,5.673
			c1.797,2.288,3.611,4.368,5.581,5.938c0.054,0.218,0.105,0.269,0.159,0.306c4.032,3.694,8.27,6.138,12.301,7.398
			c0.018,0.024,0.036,0.024,0.036,0.024c0.07,0.017,0.122,0.051,0.176,0.069c0,0.017,0.017,0.017,0.017,0.017h0.023
			c0.186,0,0.221,0,0.272,0.017c0.019,0,0.036,0,0.036,0c15.111,1.857,28.881-10.597,35.075-22.944
			c1.087-2.291,2.429-5.032,4.1-8.341c0-0.02,0-0.037,0.019-0.055c9.407-33.198,42.265-69.154,45.508-72.639
			c-1.412,1.804-8.705,11.568-17.467,24.422c7.871-10.94,16.823-21.628,27.067-30.632c-3.886-6.23-9.459-18.126-13.875-38.4
			c0.89,3.209,6.702,24.386,16.259,36.269c1.228-0.993,2.519-2.117,3.811-3.071c-4.763-5.81-8.738-13.251-11.408-21.664
			c-2.796-9.137-3.738-18.054-3.095-25.933c0.316-0.29,0.646-0.622,0.841-0.967c-0.232,7.336,0.749,15.35,3.366,23.397
			c2.67,8.43,6.665,15.87,11.274,21.697c0.349-2.739,0.436-5.429,0.4-8.03c-3.27-4.511-6.267-10.456-8.393-16.894
			c-1.852-6.036-2.776-11.812-2.812-17.053v-0.031c-1.188-1.44-2.182-2.76-3.088-3.874c-0.294-0.203-0.419-0.43-0.546-0.618
			c-0.274-0.241-0.397-0.434-0.677-0.614c-0.104-0.217-0.367-0.402-0.505-0.554c-5.394,6.111-26.316,30.688-43.138,60.346
			c-16.387,28.845-31.968,63.274-37.431,70.062c-0.82,1.067-1.363,1.497-1.745,1.227c-0.784-0.418-0.925-1.718-0.729-3.681
			c-1.4,2.202-2.396,3.245-2.901,2.912c-2.966-1.486,2.409-16.906,14.222-39.218c0.123-0.359,0.394-0.739,0.523-1.121l0.017-0.017
			c0.037-0.106,0.089-0.364,0.313-0.487c0.631-1.336,1.485-3.051,2.446-4.964l-0.418-0.221c-0.576-0.121-0.997-0.865-0.874-1.457
			c0.26-0.504,0.733-0.886,1.24-0.886c0.089,0,0.313,0.018,0.383,0.035l0.837,0.164c0.926-1.898,1.921-4.083,3.124-6.408
			c0,0,0-0.018,0.017-0.034c1.049-2.497,2.321-5.135,3.649-7.893l0.017-0.017c0.054-0.295,0.262-0.435,0.349-0.727
			c0.907-1.928,1.851-4.06,2.81-6.245l0.768-1.459c0.994-2.237,2.164-4.683,3.192-7.023c-3.575-0.921-7.572,0.973-9.405,4.821
			c-1.691,3.245-1.221,7.076,0.926,9.383c-3.718-1.855-5.251-6.781-3.106-11.098c2.146-4.321,6.998-6.194,10.732-4.355
			c0.401,0.277,0.803,0.417,1.168,0.745c0.873-1.99,1.763-3.866,2.652-5.759c0.088-0.345,0.177-0.675,0.399-0.866
			c0.89-2.011,1.781-3.901,2.67-5.813c-0.382-0.343-0.643-0.829-0.398-1.281c0.104-0.657,0.594-0.884,1.101-0.884h0.243
			c0.978-2.222,1.954-4.441,3.104-6.849l0.019-0.018c-3.799-1.132-8.011,0.744-10.067,4.716c-1.537,3.228-1.084,7.042,0.907,9.366
			c-3.719-1.857-5.079-6.765-3.084-11.066c2.14-4.313,6.991-6.191,10.882-4.352c0.526,0.328,1.014,0.708,1.45,1.127
			c0.088-0.366,0.33-0.729,0.437-1.089c0.051-0.145,0.126-0.436,0.347-0.577c0.943-2.169,1.904-4.336,2.865-6.538
			c0-0.017,0-0.017,0-0.035c0.259-0.38,0.365-0.626,0.453-1.008l0.189-0.033c0.996-2.48,2.009-4.769,3.193-7.28
			c-3.523-0.681-7.45,1.192-9.282,4.854c-1.675,3.363-1.22,7.007,0.89,9.485c-3.7-2.011-5.195-6.919-3.053-11.031
			c2.146-4.317,6.979-6.191,10.733-4.371c0.365,0.105,0.729,0.383,0.918,0.503l1.122-2.271c0.053-0.276,0.104-0.399,0.158-0.504
			c2.233-4.905,4.467-9.918,6.705-14.881c-3.322-0.649-7.177,1.301-8.957,4.945c-1.538,3.305-1.064,6.988,0.908,9.467
			c-3.72-2.011-5.079-6.937-3.089-11.165c2.145-4.235,6.996-6.186,10.886-4.349c0.16,0.147,0.473,0.235,0.613,0.417
			c0.872-1.84,1.727-3.757,2.6-5.594l-4.433,1.317l16.841-28.87l-4.486,10.113c1.974-4.588,4.066-9.045,5.986-13.434
			c-3.123-1.552-4.938-5.056-4.45-8.594l-2.791-0.754c-0.57-0.184-0.962-0.851-0.838-1.482c0.09-0.486,0.564-0.868,1.204-0.868
			c0.069,0,0.14,0.02,0.21,0.111l2.947,0.756c1.552-3.773,5.812-5.812,9.807-4.693c0.366,0.053,0.578,0.2,0.927,0.287
			c1.743-3.79,3.472-7.396,4.973-10.918c-3.229-1.517-5.079-5.072-4.59-8.758l-2.967-0.754c-0.557-0.201-0.959-0.85-0.824-1.483
			c0.23-0.487,0.703-0.868,1.191-0.868c0.07,0,0.158,0.019,0.365,0.053l2.812,0.815c1.674-3.773,5.793-5.811,9.79-4.691
			c0.436,0.069,0.854,0.25,1.255,0.45c-3.577-0.434-7.104,1.57-8.517,4.926l5.428,1.536c0.018,0,0.053,0.017,0.07,0.034
			c1.169-2.254,2.147-4.422,3.09-6.46c0-0.017,0-0.017,0.018-0.035c0.417-0.901,0.854-1.787,1.273-2.653v-0.017
			c-3.596-1.336-5.777-5.056-5.271-8.955l-2.81-0.758c-0.715-0.2-0.964-0.849-0.839-1.5c0.107-0.487,0.582-0.851,1.223-0.851
			c0.051,0,0.121,0,0.191,0.051l2.966,0.8c1.692-3.756,5.795-5.813,9.807-4.692c0.437,0.068,0.856,0.251,1.255,0.451
			c-3.679-0.451-7.101,1.569-8.686,4.925l5.58,1.536c0.194,0.147,0.526,0.336,0.614,0.598c0-0.019,0-0.075,0.017-0.129
			c0.967-2.038,2.13-4.207,3.364-6.444v-0.017c0.02-0.053,0.056-0.183,0.09-0.251c0.453-0.885,0.906-1.789,1.38-2.693
			c-3.433-1.496-5.323-5.07-4.851-8.772l-2.795-0.832c-0.711-0.133-1.087-0.775-0.836-1.405c0.087-0.576,0.56-0.868,1.203-0.868
			c0.07,0,0.141,0,0.21,0.017l2.949,0.834c1.555-3.756,5.81-5.866,9.808-4.77c0.453,0.165,0.89,0.346,1.306,0.539
			c-3.733-0.539-7.152,1.485-8.722,4.917l5.52,1.553c0.239,0.052,0.552,0.234,0.64,0.45c1.182-2.041,2.27-4.207,3.507-6.391
			c0.036-0.07,0.069-0.217,0.123-0.318c0.733-1.217,1.309-2.37,2.039-3.614c-0.035,0-0.204-0.023-0.224-0.023
			c-3.995-1.119-6.37-5.09-5.846-9.114l-2.794-0.833c-0.73-0.188-1.111-0.809-0.854-1.407c0.104-0.554,0.558-0.865,1.049-0.865
			c0.225,0,0.294,0.017,0.364,0.034l2.967,0.831c1.535-3.772,5.809-5.887,9.807-4.765c0.436,0.144,0.834,0.321,1.103,0.463
			c-3.579-0.416-7.099,1.625-8.537,4.99l5.429,1.534c0.715,0.155,1.116,0.839,0.837,1.405c-0.105,0.634-0.837,1.032-1.414,0.833
			l-5.426-1.535c-0.454,3.286,0.977,6.425,3.664,8.16c0.784-1.335,1.433-2.689,2.216-4.083c1.78-3.228,3.577-6.531,5.375-9.853
			c0.071-0.234,0.314-0.469,0.401-0.707v-0.064c0.854-1.495,1.692-2.985,2.403-4.518c1.521-2.654,2.885-5.309,4.244-7.962
			c1.886-3.721,3.798-7.452,5.581-11.066c-2.509,4.043-5.002,7.366-6.803,9.766c-1.447,1.986-2.613,3.321-3.022,3.832
			c0.354-0.511,1.381-1.865,2.848-4.12c3.544-5.706,9.789-17.072,15.706-34.411c9.006-26.243-5.81-30.977-20.21-20.753
			C428.411,73.806,440.171,76.964,441.533,90.199z M279.683,432.045c-0.649-0.292-1.45-0.38-2.251-0.38
			c1.743-0.449,3.595-0.449,5.409,0.037c5.617,1.458,8.795,7.181,7.156,12.764c-1.341,4.619-5.813,7.667-10.438,7.474
			c3.318-0.884,6.3-3.52,7.278-7.277C288.458,439.229,285.299,433.506,279.683,432.045z M334.895,406.533
			c0,0,11.298-31.463,32.808-43.916C352.536,375.159,334.895,406.533,334.895,406.533z M372.007,305.729
			c-19.349,27.005-51.599,84.52-52.713,86.289C320.149,390.161,342.939,339.289,372.007,305.729z M323.114,441.102
			c-13.348,22.426-34.586,13.598-35.843,13.096C288.6,454.317,309.835,457.302,323.114,441.102z M275.145,415.796
			c0.783-7.006,2.198-16.702,5.009-26.937c0.679-0.017,1.149-0.433,1.22-0.971c0.054-0.469-0.087-0.902-0.487-1.214
			c4.413-14.69,11.744-30.438,24.22-41.054C283.52,377.274,276.977,402.251,275.145,415.796z M313.1,369.075
			c-0.019,0-0.019-0.021-0.035-0.021c-3.735-1.838-8.586,0.179-10.732,4.353c-1.674,3.382-1.204,7.025,0.908,9.35
			c-3.72-1.856-5.229-6.766-3.088-11.065c2.145-4.165,6.995-6.194,10.731-4.202C311.756,367.924,312.558,368.463,313.1,369.075z
			 M396.634,132.366c-9.497-4.184-7.011-18.086,2.79-31.373C398.396,102.948,386.461,124.827,396.634,132.366z M427.207,83.296
			c7.314,0.692,15.74,15.429,0,35.12C440.296,86.894,427.207,83.296,427.207,83.296z M407.75,130.044
			c-2.251,1.693-3.998,2.56-4.359,2.691c0.311-0.208,1.706-1.254,3.765-3.274c4.643-4.846,12.584-15.146,14.693-31.239
			C424.101,115.549,413.908,125.619,407.75,130.044z M418.046,91.551c0.119,10.461-10.278,29.311-16.212,33.126
			c-1.203,0.727-2.164,0.921-2.948,0.434c-0.203-0.217-0.089-1.119,0.419-2.528C401.834,115.815,412.271,97.551,418.046,91.551z
			 M365.555,241.659l5.306,1.517c0.995-2.204,2.075-4.371,3.018-6.444C370.39,236.399,367.125,238.374,365.555,241.659z"/>
		<path fill-rule="evenodd" clip-rule="evenodd" fill="#FFC300" d="M397.104,336.981c-1.272-1.282-2.372-2.68-3.594-4.3
			c-3.27-4.511-6.267-10.456-8.393-16.894c-1.852-6.036-2.776-11.812-2.812-17.053v-0.031c-0.034-1.26-0.018-2.428,0.054-3.625
			c0.017-0.571,0.052-1.125,0.104-1.664c-0.628-0.675-1.065-0.99-1.065-0.99s-0.313,0.244-0.783,0.752
			c-0.366,0.421-0.839,0.999-1.396,1.653c-0.294,0.266-0.454,0.554-0.749,0.787c-0.232,7.336,0.749,15.35,3.366,23.397
			c2.67,8.43,6.665,15.87,11.274,21.697c1.148,1.301,2.162,2.567,3.286,3.61c0.567,0.673,1.093,1.193,1.599,1.68
			c0.331-0.156,0.537-0.47,0.872-0.606c0.384-2.15,0.525-4.267,0.75-6.193C398.764,338.474,397.924,337.681,397.104,336.981z"/>
		<path fill-rule="evenodd" clip-rule="evenodd" fill="#FFC300" d="M439.735,75.435c-2.127-1.34-4.03-2.413-5.863-3.163
			c-0.122-0.022-0.261-0.054-0.296-0.101c-2.287-0.981-4.467-1.556-6.411-1.723c-6.409-0.677-11.353,2.095-15.764,6.757
			c-1.577,1.802-3.251,3.912-4.855,6.169c-2.794,4.055-5.481,8.741-8.239,13.45c-3.96,6.584-6.751,12.778-8.427,18.179
			c-1.146,3.414-1.692,6.486-1.796,9.207c-0.315,4.909,0.923,8.629,3.629,10.566h0.017c0,0,0.019,0,0.019,0.031
			c0.018,0,0.018,0,0.018,0h0.017c0.313,0.088,1.17,0.469,2.441,0.755c0.925,0.301,1.991,0.505,3.334,0.634
			c0.456,0.017,0.928,0.04,1.508,0.078c0.972,0,1.912-0.038,2.89-0.131c2.671-0.336,5.742-1.22,8.865-3.106
			c2.705-1.698,5.485-4.135,8.334-7.655c-1.738,3.9-3.883,7.198-6.448,9.542c-2.269,2.198-4.903,3.657-7.767,4.007h-0.027
			c-1.038,0.135-1.979,0.152-2.938,0.083c-0.91,2.631-2.67,7.166-5.706,14.006c-1.467,3.522-3.299,7.676-5.57,12.488
			c-6.629,13.816-40.85,82.525-62.644,126.121v0.018c-0.35,0.621-0.527,1.194-0.874,1.716v0.02
			c-1.326,2.671-2.634,5.253-3.907,7.614v0.171c-0.177,0.538-0.507,1.042-0.855,1.563v0.017
			c-7.626,15.384-12.651,25.583-12.651,25.583l-5.707,4.024c0,0-16.788,25.564-27.626,53.472c-0.329,0.798-0.678,1.612-0.871,2.262
			c-1.326,3.497-2.582,7-3.576,10.503v0.019c-0.314,0.814-0.473,1.611-0.77,2.271c-3.647,12.767-5.338,25.149-2.757,34.966v0.132
			c0.383,1.428,0.839,2.8,1.362,4.119c-0.019,0.017-0.019,0.033,0,0.033c0.871,2.099,1.885,3.937,3.212,5.673
			c1.797,2.288,3.611,4.368,5.581,5.938c0.054,0.218,0.105,0.269,0.159,0.306c4.032,3.694,8.27,6.138,12.301,7.398
			c0.018,0.024,0.036,0.024,0.036,0.024c0.122,0.033,0.384,0.069,0.488,0.103c0.019,0,0.036,0,0.036,0
			c16.491,4.561,32.038-8.861,38.703-22.147c8.411-16.755,27.264-57.932,57.309-85.59c-0.474-0.63-1.147-1.497-1.71-2.451
			c-3.886-6.23-9.459-18.126-13.875-38.4c0.89,3.209,6.702,24.386,16.259,36.269c0.686,0.814,1.264,1.456,2.014,2.218
			c1.253-0.99,2.354-2.132,3.629-3.085c-0.576-0.764-1.292-1.406-1.832-2.204c-4.763-5.81-8.738-13.251-11.408-21.664
			c-2.796-9.137-3.738-18.054-3.095-25.933c0.316-0.29,0.646-0.622,0.841-0.967c-0.232,7.336,0.749,15.35,3.366,23.397
			c2.67,8.43,6.665,15.87,11.274,21.697c1.148,1.301,2.162,2.567,3.286,3.61c0.358-2.449,0.638-4.997,0.708-7.341
			c-1.272-1.282-2.372-2.68-3.594-4.3c-3.27-4.511-6.267-10.456-8.393-16.894c-1.852-6.036-2.776-11.812-2.812-17.053v-0.031
			c-0.034-1.26-0.018-2.428,0.054-3.625c-0.595-0.798-1.274-1.354-1.745-1.902c-1.03-1.114-1.78-1.637-1.78-1.637
			s-0.124,0.216-0.524,0.629c-0.277,0.221-0.454,0.5-0.819,0.875c-5.394,6.111-26.316,30.688-43.138,60.346
			c-16.387,28.845-31.968,63.274-37.431,70.062c-0.82,1.067-1.363,1.497-1.745,1.227c-0.784-0.418-0.925-1.718-0.729-3.681
			c0.889-6.12,6.173-18.973,14.984-35.764c0.313-0.467,0.49-0.918,0.803-1.387c0.176-0.657,0.541-1.178,0.891-1.752
			c0.018,0,0.018-0.052,0.018-0.052c0.453-1.038,0.924-1.958,1.447-2.983l-3.523-0.957l-0.418-0.221
			c-0.576-0.121-0.997-0.865-0.874-1.457c0.26-0.504,0.733-0.886,1.24-0.886c0.089,0,0.313,0.018,0.383,0.035l0.837,0.164
			l3.524,1.084c0.438-0.867,0.873-1.752,1.327-2.688c0.211-0.763,0.594-1.543,0.994-2.187c1.345-2.912,2.774-6.051,4.435-9.498
			c0.363-0.613,0.574-1.392,0.957-2.019c0.751-1.542,1.345-2.965,2.13-4.422v-0.021l-2.53-0.76
			c-0.436-0.086-0.628-0.433-0.872-0.813l0.768-1.459c0.104-0.052,0.367-0.073,0.471-0.073c0.071,0,0.313,0.021,0.384,0.039
			l2.775,0.682c0.785-1.514,1.584-3.213,2.25-4.93c0.263-0.212,0.35-0.573,0.456-0.938l0.017-0.017
			c1.15-2.291,2.182-4.77,3.385-7.165v-0.017c0.4-0.85,0.82-1.683,1.065-2.549v-0.017c0.697-1.303,1.238-2.62,1.78-3.939v-0.017
			l-2.88-0.849c-0.279-0.036-0.387-0.106-0.475-0.178c-0.382-0.343-0.643-0.829-0.398-1.281c0.104-0.657,0.594-0.884,1.101-0.884
			h0.243c0.034,0,0.087,0,0.123,0.017l3.438,0.938c0.575-1.389,1.307-2.948,1.901-4.354c0-0.017,0.018-0.017,0.018-0.034
			c0.279-0.434,0.401-0.867,0.698-1.283c0,0,0,0,0-0.019c0.208-0.796,0.575-1.405,0.958-2.184c0.2-0.608,0.56-1.39,0.942-2.15
			c0.58-1.44,1.345-2.881,2.093-4.494l-2.441-0.571c-0.471-0.242-0.854-0.675-0.87-1.145c0-0.017,0-0.017,0-0.035
			c0.259-0.38,0.365-0.626,0.453-1.008l0.189-0.033c0.123-0.241,0.299-0.295,0.594-0.295c0.09,0,0.315,0.018,0.384,0.035
			l2.671,0.797c0.819-1.716,1.483-3.434,2.303-5.185c0-0.017,0.018-0.017,0.018-0.033c0.105-0.178,0.315-0.522,0.403-0.869
			c0.487-1.007,0.96-2.184,1.431-3.209l0.019-0.017c0.347-0.729,0.695-1.301,0.871-1.876v-0.17c0.784-1.476,1.553-3.119,2.182-4.598
			v-0.018l-1.975-0.675c-0.731-0.122-1.133-0.754-0.871-1.458c0.104-0.521,0.594-0.901,1.083-0.901c0.244,0,0.314,0.017,0.385,0.034
			l2.499,0.715c0.693-1.802,1.548-3.607,2.367-5.409c0.089-0.249,0.304-0.485,0.384-0.719c5.794-12.782,11.588-25.601,17.017-37.679
			c0.033-0.053,0.053-0.105,0.099-0.253c2.168-4.728,4.332-9.46,6.442-13.917c0.107-0.288,0.195-0.651,0.454-0.938
			c1.764-3.881,3.385-7.545,5.01-11.083v-0.089c0.052-0.075,0.092-0.127,0.243-0.292c2.269-4.858,4.26-9.352,6.316-13.521v-0.018
			c0.106-0.398,0.381-0.797,0.489-1.102c0.471-1.048,0.925-2.005,1.362-3.016c0.069-0.2,0.126-0.304,0.331-0.503
			c1.395-3.052,2.722-5.759,3.818-8.197c0.755-1.48,1.557-2.999,2.352-4.532c0.165-0.453,0.46-0.903,0.636-1.354
			c0.507-1.083,1.186-2.104,1.71-3.282h0.018c0.034-0.091,0.088-0.257,0.124-0.423c2.144-4.002,4.413-8.228,6.876-12.594
			c0.171-0.467,0.502-0.94,0.662-1.391c0.82-1.406,1.656-2.888,2.494-4.384c0.087-0.274,0.193-0.525,0.454-0.817
			c0.157-0.495,0.489-0.952,0.647-1.426c1.726-3.104,3.486-6.245,5.233-9.472h0.017v-0.023c0.349-0.649,0.712-1.191,0.961-1.839
			c0-0.02,0.018-0.02,0.018-0.055c0.765-1.264,1.384-2.565,2.109-3.865c1.396-2.654,2.799-5.308,4.321-7.979
			C440.102,115.03,453.192,84.183,439.735,75.435z M396.634,132.366c-9.497-4.184-7.011-18.086,2.79-31.373
			C398.396,102.948,386.461,124.827,396.634,132.366z M401.834,124.678c-1.203,0.727-2.164,0.921-2.948,0.434
			c-0.203-0.217-0.089-1.119,0.419-2.528c2.529-6.769,12.967-25.032,18.741-31.032C418.165,102.012,407.768,120.862,401.834,124.678
			z M407.75,130.044c-2.251,1.693-3.998,2.56-4.359,2.691c0.311-0.208,1.706-1.254,3.765-3.274
			c4.643-4.846,12.584-15.146,14.693-31.239C424.101,115.549,413.908,125.619,407.75,130.044z M280.153,388.859
			c0.679-0.017,1.149-0.433,1.22-0.971c0.054-0.469-0.087-0.902-0.487-1.214c4.413-14.69,11.744-30.438,24.22-41.054
			c-21.586,31.653-28.129,56.63-29.961,70.175C275.928,408.79,277.343,399.094,280.153,388.859z M279.683,432.045
			c-0.649-0.292-1.45-0.38-2.251-0.38c1.743-0.449,3.595-0.449,5.409,0.037c5.617,1.458,8.795,7.181,7.156,12.764
			c-1.341,4.619-5.813,7.667-10.438,7.474c3.318-0.884,6.3-3.52,7.278-7.277C288.458,439.229,285.299,433.506,279.683,432.045z
			 M376.337,355.594c-1.412,1.804-8.705,11.568-17.467,24.422c-0.22,0.449-0.575,0.918-0.94,1.387
			c-12.042,17.224-21.012,34.773-27.101,46.83C340.236,395.034,373.094,359.078,376.337,355.594z M334.895,406.533
			c0,0,11.298-31.463,32.808-43.916C352.536,375.159,334.895,406.533,334.895,406.533z M372.007,305.729
			c-19.349,27.005-51.599,84.52-52.713,86.289C320.149,390.161,342.939,339.289,372.007,305.729z M323.114,441.102
			c-13.348,22.426-34.586,13.598-35.843,13.096C288.6,454.317,309.835,457.302,323.114,441.102z M302.332,373.406
			c-1.674,3.382-1.204,7.025,0.908,9.35c-3.72-1.856-5.229-6.766-3.088-11.065c2.145-4.165,6.995-6.194,10.731-4.202
			c0.872,0.436,1.674,0.975,2.216,1.587c-0.019,0-0.019-0.021-0.035-0.021C309.329,367.216,304.479,369.232,302.332,373.406z
			 M324.161,345.933c-3.575-0.921-7.572,0.973-9.405,4.821c-1.691,3.245-1.221,7.076,0.926,9.383
			c-3.718-1.855-5.251-6.781-3.106-11.098c2.146-4.321,6.998-6.194,10.732-4.355c0.401,0.277,0.803,0.417,1.168,0.745
			C324.424,345.552,324.215,345.808,324.161,345.933z M334.266,323.959c-3.799-1.132-8.011,0.744-10.067,4.716
			c-1.537,3.228-1.084,7.042,0.907,9.366c-3.719-1.857-5.079-6.765-3.084-11.066c2.14-4.313,6.991-6.191,10.882-4.352
			c0.526,0.328,1.014,0.708,1.45,1.127C334.301,323.819,334.266,323.889,334.266,323.959z M342.018,306.647
			c-0.055,0.294-0.126,0.417-0.18,0.542c-3.523-0.681-7.45,1.192-9.282,4.854c-1.675,3.363-1.22,7.007,0.89,9.485
			c-3.7-2.011-5.195-6.919-3.053-11.031c2.146-4.317,6.979-6.191,10.733-4.371c0.365,0.105,0.729,0.383,0.918,0.503L342.018,306.647
			z M350.029,288.974c-3.322-0.649-7.177,1.301-8.957,4.945c-1.538,3.305-1.064,6.988,0.908,9.467
			c-3.72-2.011-5.079-6.937-3.089-11.165c2.145-4.235,6.996-6.186,10.886-4.349c0.16,0.147,0.473,0.235,0.613,0.417
			C350.319,288.506,350.25,288.741,350.029,288.974z M357.822,272.061c-1.656,3.446-3.157,7.078-4.832,10.635l-4.433,1.317
			l16.841-28.87l-4.486,10.113L357.822,272.061z M373.878,236.731c-3.488-0.332-6.753,1.643-8.323,4.928l5.306,1.517l0.296,0.036
			c0.558,0.198,0.941,0.849,0.699,1.482c-0.142,0.649-0.717,0.953-1.432,0.849l-0.508-0.181l-4.938-1.372
			c-0.4,2.655,0.507,5.213,2.304,7.077c0.733,0.65,1.379,1.154,2.233,1.571c-0.4-0.02-0.819-0.147-1.067-0.218
			c-0.642-0.165-1.097-0.363-1.55-0.598c-3.123-1.552-4.938-5.056-4.45-8.594l-2.791-0.754c-0.57-0.184-0.962-0.851-0.838-1.482
			c0.09-0.486,0.564-0.868,1.204-0.868c0.069,0,0.14,0.02,0.21,0.111l2.947,0.756c1.552-3.773,5.812-5.812,9.807-4.693
			c0.366,0.053,0.578,0.2,0.927,0.287C373.896,236.605,373.896,236.714,373.878,236.731z M383.667,218.373
			c-0.273,0.627-0.854,0.955-1.414,0.755l-0.276-0.034l-5.305-1.497c-0.418,2.797,0.714,5.485,2.601,7.271
			c0.541,0.598,1.307,1.068,2.126,1.449c-0.419-0.021-0.854-0.147-1.273-0.217c-0.419-0.147-0.836-0.323-1.238-0.434
			c-3.229-1.517-5.079-5.072-4.59-8.758l-2.967-0.754c-0.557-0.201-0.959-0.85-0.824-1.483c0.23-0.487,0.703-0.868,1.191-0.868
			c0.07,0,0.158,0.019,0.365,0.053l2.812,0.815c1.674-3.773,5.793-5.811,9.79-4.691c0.436,0.069,0.854,0.25,1.255,0.45
			c-3.577-0.434-7.104,1.57-8.517,4.926l5.428,1.536c0.018,0,0.053,0.017,0.07,0.034
			C383.577,217.142,383.79,217.758,383.667,218.373z M391.385,200.266c-0.091,0.434-0.492,0.702-0.929,0.801
			c-0.104,0.067-0.215,0.067-0.488,0l-5.427-1.505c-0.438,2.941,0.818,5.847,3.07,7.616c0.453,0.398,0.96,0.689,1.467,1.015
			c-0.4-0.026-0.819-0.147-1.083-0.217c-0.278-0.108-0.42-0.164-0.714-0.216c-3.596-1.336-5.777-5.056-5.271-8.955l-2.81-0.758
			c-0.715-0.2-0.964-0.849-0.839-1.5c0.107-0.487,0.582-0.851,1.223-0.851c0.051,0,0.121,0,0.191,0.051l2.966,0.8
			c1.692-3.756,5.795-5.813,9.807-4.692c0.437,0.068,0.856,0.251,1.255,0.451c-3.679-0.451-7.101,1.569-8.686,4.925l5.58,1.536
			c0.194,0.147,0.526,0.336,0.614,0.598C391.556,199.615,391.607,199.904,391.385,200.266z M400.701,182.46
			c-0.106,0.547-0.561,0.85-1.05,0.85c-0.08,0-0.294-0.017-0.364-0.034l-5.428-1.536c-0.419,2.835,0.576,5.562,2.688,7.441
			c0.541,0.486,1.273,0.919,1.9,1.207c-0.417-0.036-0.852-0.087-1.269-0.234c-0.251-0.07-0.632-0.236-1.016-0.326
			c-3.433-1.496-5.323-5.07-4.851-8.772l-2.795-0.832c-0.711-0.133-1.087-0.775-0.836-1.405c0.087-0.576,0.56-0.868,1.203-0.868
			c0.07,0,0.141,0,0.21,0.017l2.949,0.834c1.555-3.756,5.81-5.866,9.808-4.77c0.453,0.165,0.89,0.346,1.306,0.539
			c-3.733-0.539-7.152,1.485-8.722,4.917l5.52,1.553c0.239,0.052,0.552,0.234,0.64,0.45
			C400.72,181.741,400.927,182.141,400.701,182.46z M406.264,171.167c-0.035,0-0.204-0.023-0.224-0.023
			c-3.995-1.119-6.37-5.09-5.846-9.114l-2.794-0.833c-0.73-0.188-1.111-0.809-0.854-1.407c0.104-0.554,0.558-0.865,1.049-0.865
			c0.225,0,0.294,0.017,0.364,0.034l2.967,0.831c1.535-3.772,5.809-5.887,9.807-4.765c0.436,0.144,0.834,0.321,1.103,0.463
			c-3.579-0.416-7.099,1.625-8.537,4.99l5.429,1.534c0.715,0.155,1.116,0.839,0.837,1.405c-0.105,0.634-0.837,1.032-1.414,0.833
			l-5.426-1.535c-0.454,3.286,0.977,6.425,3.664,8.16C406.353,170.951,406.302,171.093,406.264,171.167z M440.138,103.408
			c-3.106,11.143-8.695,21.487-13.528,29.214c-2.509,4.043-5.002,7.366-6.803,9.766c-1.447,1.986-2.613,3.321-3.022,3.832
			c0.354-0.511,1.381-1.865,2.848-4.12c3.544-5.706,9.789-17.072,15.706-34.411c9.006-26.243-5.81-30.977-20.21-20.753
			c13.283-13.13,25.043-9.972,26.405,3.263v0.098C441.935,93.953,441.517,98.358,440.138,103.408z M427.207,83.296
			c7.314,0.692,15.74,15.429,0,35.12C440.296,86.894,427.207,83.296,427.207,83.296z"/>
		<path fill-rule="evenodd" clip-rule="evenodd" fill="#FFC300" d="M434.521,305.658c-3.633-11.688-9.827-21.359-16.93-27.733
			c3.979,4.085,7.469,9.826,9.615,17.676c-10.923-24.317-29.335-24.821-34.934-24.388c-5.773,2.42-9.95,7.779-12.479,14.891
			c-0.019,0.095-0.019,0.111-0.019,0.147c-0.575,1.82-1.048,3.809-1.466,5.918c-0.054,0.465-0.256,0.927-0.314,1.429
			c-0.088,1.012-0.175,1.984-0.367,2.986c0.316-0.29,0.646-0.622,0.841-0.967c-0.232,7.336,0.749,15.35,3.366,23.397
			c2.67,8.43,6.665,15.87,11.274,21.697c1.148,1.301,2.162,2.567,3.286,3.61c0.567,0.673,1.093,1.193,1.599,1.68
			c7.806,7.334,16.532,10.546,24.448,8.014c6.596-1.961,11.446-7.668,14.116-15.505c0-0.037,0.018-0.054,0.018-0.088
			C438.828,329.124,438.357,317.521,434.521,305.658z M399.617,339.202c-0.854-0.729-1.693-1.521-2.513-2.221
			c-1.272-1.282-2.372-2.68-3.594-4.3c-3.27-4.511-6.267-10.456-8.393-16.894c-1.852-6.036-2.776-11.812-2.812-17.053v-0.031
			c-0.034-1.26-0.018-2.428,0.054-3.625c0.017-0.571,0.052-1.125,0.104-1.664c0.839-7.797,3.961-13.558,8.942-15.126
			c9.225-2.869,21.229,9.262,26.919,27.041c5.594,17.761,2.773,34.55-6.293,37.497C408.133,344.077,403.735,342.517,399.617,339.202
			z M413.908,350.354c0,0,22.848,0.02,20.157-36.577C440.481,347.39,424.063,353.477,413.908,350.354z"/>
		<path fill-rule="evenodd" clip-rule="evenodd" fill="#FFC300" d="M435.634,302.173c-7.634-24.03-25.85-39.718-40.764-34.984
			c-7.519,2.308-12.637,9.384-15.075,18.915c-0.019,0.095-0.019,0.111-0.019,0.147c-0.436,1.718-0.628,3.485-0.941,5.289
			c-0.07,0.885-0.124,1.77-0.162,2.672c-0.187,0.468-0.203,0.936-0.203,1.405c-0.232,7.336,0.749,15.35,3.366,23.397
			c2.67,8.43,6.665,15.87,11.274,21.697c1.148,1.301,2.162,2.567,3.286,3.61c0.567,0.673,1.093,1.193,1.599,1.68
			c7.806,7.334,16.532,10.546,24.448,8.014c6.596-1.961,11.446-7.668,14.116-15.505c0-0.037,0.018-0.054,0.018-0.088
			C439.824,328.64,439.789,315.476,435.634,302.173z M417.592,277.925c3.979,4.085,7.469,9.826,9.615,17.676
			c-10.923-24.317-29.335-24.821-34.934-24.388c0.641-0.217,1.132-0.434,1.639-0.615c7.572-2.402,16.055,0.58,23.557,7.205
			C417.505,277.838,417.539,277.873,417.592,277.925z M399.617,339.202c-0.854-0.729-1.693-1.521-2.513-2.221
			c-1.272-1.282-2.372-2.68-3.594-4.3c-3.27-4.511-6.267-10.456-8.393-16.894c-1.852-6.036-2.776-11.812-2.812-17.053v-0.031
			c-0.034-1.26-0.018-2.428,0.054-3.625c0.017-0.571,0.052-1.125,0.104-1.664c0.839-7.797,3.961-13.558,8.942-15.126
			c9.225-2.869,21.229,9.262,26.919,27.041c5.594,17.761,2.773,34.55-6.293,37.497C408.133,344.077,403.735,342.517,399.617,339.202
			z M413.908,350.354c0,0,22.848,0.02,20.157-36.577C440.481,347.39,424.063,353.477,413.908,350.354z"/>
		<path fill-rule="evenodd" clip-rule="evenodd" fill="#FFC300" d="M286.837,444.662c-0.979,3.758-3.96,6.394-7.278,7.277
			c-0.366,0.02-0.732-0.031-0.943-0.198c-0.435-0.042-0.87-0.095-1.308-0.182c-5.164-1.389-8.288-6.336-7.485-11.43
			c-0.019,0-0.019-0.017,0-0.033c0.034-0.435,0.087-0.868,0.33-1.302c0.995-3.607,3.806-6.244,7.279-7.13
			c0.801,0,1.602,0.088,2.251,0.38C285.299,433.506,288.458,439.229,286.837,444.662z"/>
		<g>
			<path fill-rule="evenodd" clip-rule="evenodd" fill="#FFC300" d="M315.088,374.135c0.033,0.955-0.19,1.908-0.402,2.862
				l-0.925-0.175l-3.524-1.084l-0.837-0.164c-0.07-0.018-0.294-0.035-0.383-0.035c-0.507,0-0.98,0.382-1.24,0.886
				c-0.123,0.592,0.298,1.336,0.874,1.457l0.418,0.221l3.523,0.957l0.961,0.177c-0.576,1.177-1.448,2.097-2.408,2.807
				c0,0,0,0.052-0.018,0.052c-1.402,0.972-3.106,1.476-4.817,1.459c-0.978-0.018-2.11-0.322-3.034-0.776
				c-0.019,0-0.019-0.021-0.035-0.021c-2.112-2.324-2.582-5.968-0.908-9.35c2.146-4.174,6.997-6.19,10.732-4.353
				c0.017,0,0.017,0.021,0.035,0.021c0.188,0.182,0.225,0.221,0.261,0.255C314.355,370.648,314.897,372.365,315.088,374.135z"/>
			<path fill-rule="evenodd" clip-rule="evenodd" fill="#FFC300" d="M307.776,376.425c-0.123,0.592,0.298,1.336,0.874,1.457
				l0.418,0.221l3.523,0.957l0.961,0.177l2.671,0.796c0,0.035-0.018,0.069-0.036,0.242c-1.396,2.81-4.049,4.614-6.754,4.959
				c-1.29,0.09-2.581-0.017-3.664-0.542c-0.194-0.146-0.261-0.184-0.313-0.202c-0.873-0.433-1.66-0.972-2.216-1.733
				c-2.112-2.324-2.582-5.968-0.908-9.35c2.146-4.174,6.997-6.19,10.732-4.353c0.017,0,0.017,0.021,0.035,0.021
				c0.207,0.157,0.242,0.202,0.277,0.221c1.067,0.555,2.146,1.475,2.705,2.652c0.961,1.548,1.361,3.662,0.944,5.794l-2.341-0.745
				l-0.925-0.175l-3.524-1.084l-0.837-0.164c-0.07-0.018-0.294-0.035-0.383-0.035C308.51,375.539,308.036,375.921,307.776,376.425z"
				/>
		</g>
		<g>
			<path fill-rule="evenodd" clip-rule="evenodd" fill="#FFC300" d="M320.969,352.956c-0.291,0.487-0.452,0.974-0.768,1.459
				c0.244,0.381,0.437,0.728,0.872,0.813l2.53,0.76l2.375,0.612c-1.031,1.804-2.705,3.104-4.505,3.831
				c-1.343,0.486-2.738,0.574-4.082,0.229c-0.523-0.071-1.186-0.192-1.693-0.523h-0.017c-2.146-2.307-2.617-6.138-0.926-9.383
				c1.833-3.849,5.83-5.742,9.405-4.821c0.054-0.125,0.263-0.381,0.314-0.504c0.435,0.192,0.838,0.573,1.049,0.989
				c0.697,0.745,1.133,1.405,1.324,2.256c0.749,1.733,0.803,3.798,0.263,5.67l-2.513-0.74l-2.775-0.682
				c-0.07-0.018-0.313-0.039-0.384-0.039C321.336,352.883,321.073,352.904,320.969,352.956z"/>
			<path fill-rule="evenodd" clip-rule="evenodd" fill="#FFC300" d="M320.969,352.956c-0.291,0.487-0.452,0.974-0.768,1.459
				c0.244,0.381,0.437,0.728,0.872,0.813l2.53,0.76l2.375,0.612l2.67,0.797c0,0.035-0.019,0.053-0.036,0.086
				c-1.706,3.399-4.938,5.255-8.096,4.967c-0.891-0.04-1.781-0.197-2.637-0.613c-0.348-0.087-0.507-0.347-0.837-0.45
				c-0.487-0.381-0.944-0.798-1.345-1.25h-0.017c-2.146-2.307-2.617-6.138-0.926-9.383c1.833-3.849,5.83-5.742,9.405-4.821
				c0.456,0.069,0.892,0.326,1.328,0.469c0.017,0,0.017,0.017,0.035,0.017c0.749,0.381,1.291,0.815,1.797,1.302
				c1.799,1.787,2.617,4.51,2.128,7.223l-2.338-0.599l-2.513-0.74l-2.775-0.682c-0.07-0.018-0.313-0.039-0.384-0.039
				C321.336,352.883,321.073,352.904,320.969,352.956z"/>
			<path fill-rule="evenodd" clip-rule="evenodd" fill="#FFC300" d="M320.969,352.956c-0.291,0.487-0.452,0.974-0.768,1.459
				c-0.034-0.157-0.052-0.469,0-0.625C320.426,353.39,320.604,353.045,320.969,352.956z"/>
		</g>
		<g>
			<path fill-rule="evenodd" clip-rule="evenodd" fill="#FFC300" d="M329.799,331.709c-0.244,0.452,0.017,0.938,0.398,1.281
				c0.088,0.071,0.195,0.142,0.475,0.178l2.88,0.849l2.021,0.503c-0.907,1.613-2.215,2.689-3.802,3.453v0.017
				c-1.362,0.735-2.811,0.936-4.244,0.814c-0.8-0.079-1.603-0.363-2.23-0.744c-0.17,0-0.17-0.019-0.191-0.019
				c-1.991-2.324-2.444-6.139-0.907-9.366c2.057-3.972,6.269-5.848,10.067-4.716c0-0.07,0.035-0.14,0.088-0.209
				c0.313,0.121,0.471,0.433,0.767,0.59c0.647,0.867,1.31,1.858,1.502,3.052c0.437,1.629,0.419,3.191-0.07,4.893l-1.849-0.505
				l-3.438-0.938c-0.036-0.017-0.089-0.017-0.123-0.017h-0.243C330.393,330.825,329.903,331.052,329.799,331.709z"/>
			<path fill-rule="evenodd" clip-rule="evenodd" fill="#FFC300" d="M329.799,331.709c-0.244,0.452,0.017,0.938,0.398,1.281
				c0.088,0.071,0.195,0.142,0.475,0.178l2.88,0.849l2.021,0.503l2.653,0.799c0,0.034-0.017,0.07-0.173,0.104
				c-1.482,3.104-4.45,5.07-7.348,5.115v0.017c-1.187,0.02-2.234-0.295-3.385-0.779c-0.07-0.036-0.141-0.069-0.193-0.105
				c-0.803-0.415-1.378-0.92-2.022-1.629c-1.991-2.324-2.444-6.139-0.907-9.366c2.057-3.972,6.269-5.848,10.067-4.716
				c0.158,0.224,0.488,0.275,0.65,0.363c0.168,0.018,0.188,0.018,0.204,0.018c0.873,0.45,1.502,1.142,2.2,1.75
				c0,0.019,0,0.019,0,0.019c1.465,1.787,2.026,4.353,1.552,6.92l-2.32-0.744l-1.849-0.505l-3.438-0.938
				c-0.036-0.017-0.089-0.017-0.123-0.017h-0.243C330.393,330.825,329.903,331.052,329.799,331.709z"/>
		</g>
		<g>
			<path fill-rule="evenodd" clip-rule="evenodd" fill="#FFC300" d="M338.002,315.511c0,0.019,0,0.019,0,0.035
				c0.016,0.47,0.399,0.902,0.87,1.145l2.441,0.571l2.463,0.78c-1.03,1.822-2.74,3.158-4.556,3.714
				c-1.343,0.47-2.72,0.691-4.084,0.328c-0.488-0.07-1.149-0.346-1.62-0.503c0-0.019-0.02-0.019-0.035-0.019
				c-0.019-0.017-0.019-0.017-0.036-0.034c-2.109-2.479-2.564-6.122-0.89-9.485c1.832-3.661,5.759-5.534,9.282-4.854
				c0.054-0.125,0.125-0.248,0.18-0.542l0.026-0.019c0.614,0.383,1.068,0.799,1.28,1.233c0.018,0.017,0.037,0.017,0.037,0.033
				c0.641,0.539,1.05,1.266,1.252,1.894c0.804,1.768,0.874,3.918,0.296,6.017l-2.616-0.799l-2.671-0.797
				c-0.068-0.018-0.294-0.035-0.384-0.035c-0.295,0-0.471,0.054-0.594,0.295l-0.189,0.033
				C338.367,314.885,338.261,315.131,338.002,315.511z"/>
			<path fill-rule="evenodd" clip-rule="evenodd" fill="#FFC300" d="M338.002,315.511c0,0.019,0,0.019,0,0.035
				c0.016,0.47,0.399,0.902,0.87,1.145l2.441,0.571l2.463,0.78l2.671,0.647c0,0.186-0.017,0.202-0.036,0.237
				c-1.535,3.262-4.956,5.29-8.133,4.979c-0.871-0.035-1.744-0.193-2.599-0.608c-0.366-0.261-0.56-0.364-0.89-0.637
				c-0.473-0.23-0.926-0.665-1.309-1.099c-0.019-0.017-0.019-0.017-0.036-0.034c-2.109-2.479-2.564-6.122-0.89-9.485
				c1.832-3.661,5.759-5.534,9.282-4.854c0.491,0.222,0.979,0.343,1.451,0.655c0,0,0.017,0.018,0.035,0.018
				c0.018,0.017,0.037,0.017,0.037,0.033c0.693,0.178,1.201,0.574,1.655,1.024c1.885,1.787,2.739,4.718,2.233,7.477l-2.341-0.591
				l-2.616-0.799l-2.671-0.797c-0.068-0.018-0.294-0.035-0.384-0.035c-0.295,0-0.471,0.054-0.594,0.295l-0.189,0.033
				C338.367,314.885,338.261,315.131,338.002,315.511z"/>
			<path fill-rule="evenodd" clip-rule="evenodd" fill="#FFC300" d="M338.004,315.506c0.002,0.014-0.005,0.026-0.002,0.04
				c0-0.017,0-0.017,0-0.035C338.002,315.51,338.004,315.508,338.004,315.506z"/>
			<path fill-rule="evenodd" clip-rule="evenodd" fill="#FFC300" d="M338.455,314.503c-0.088,0.38-0.192,0.624-0.451,1.003
				c-0.012-0.091-0.015-0.184,0.014-0.428C338.227,314.903,338.314,314.609,338.455,314.503z"/>
		</g>
		<g>
			<path fill-rule="evenodd" clip-rule="evenodd" fill="#FFC300" d="M350.64,296.767v-0.019l-2.499-0.715
				c-0.07-0.018-0.141-0.034-0.385-0.034c-0.489,0-0.979,0.381-1.083,0.901c-0.262,0.704,0.14,1.336,0.871,1.458l1.975,0.675
				l2.929,0.824c-1.236,1.9-3.053,3.253-5.11,3.791v0.17c-1.324,0.247-2.688,0.436-4.013,0.036c-0.438-0.206-0.872-0.312-1.307-0.45
				h-0.021l-0.016-0.019c-1.973-2.479-2.446-6.162-0.908-9.467c1.78-3.645,5.635-5.595,8.957-4.945
				c0.221-0.232,0.29-0.468,0.361-0.685c0.508,0.378,1.141,0.813,1.42,1.303c0.138,0,0.138,0.018,0.184,0.018
				c0.453,0.485,0.682,1.1,1.013,1.729c0.892,1.819,1.014,4.063,0.42,6.142L350.64,296.767z"/>
			<path fill-rule="evenodd" clip-rule="evenodd" fill="#FFC300" d="M350.64,296.767v-0.019l-2.499-0.715
				c-0.07-0.018-0.141-0.034-0.385-0.034c-0.489,0-0.979,0.381-1.083,0.901c-0.262,0.704,0.14,1.336,0.871,1.458l1.975,0.675
				l2.929,0.824l2.671,0.655c0,0.033-0.028,0.061-0.185,0.233c-1.088,2.328-3.182,4.027-5.415,4.602v0.017
				c-0.943,0.347-1.922,0.399-3.053,0.33c-0.666-0.054-1.485-0.364-2.271-0.745c-0.419-0.123-0.646-0.416-1.029-0.591
				c-0.42-0.347-0.803-0.71-1.148-0.954h-0.021l-0.016-0.019c-1.973-2.479-2.446-6.162-0.908-9.467
				c1.78-3.645,5.635-5.595,8.957-4.945c0.71,0.146,1.252,0.363,1.781,0.618c0.138,0,0.138,0.018,0.184,0.018
				c0.507,0.248,0.961,0.611,1.396,1.011c0.81,0.666,1.379,1.425,1.798,2.344c0.793,1.563,0.96,3.433,0.577,5.237l-2.339-0.721
				L350.64,296.767z"/>
		</g>
		<g>
			<g>
				<path fill-rule="evenodd" clip-rule="evenodd" fill="#FFC300" d="M378.673,246.531c-1.147,3.739-4.429,6.176-8.167,6.157
					c-0.241,0-0.606-0.017-0.99-0.051c-0.854-0.417-1.5-0.921-2.233-1.571c-1.797-1.864-2.704-4.422-2.304-7.077l4.938,1.372
					l0.508,0.181c0.715,0.104,1.29-0.2,1.432-0.849c0.242-0.634-0.142-1.285-0.699-1.482l-0.296-0.036l-5.306-1.517
					c1.57-3.285,4.835-5.26,8.323-4.928c0.019-0.017,0.019-0.126,0.036-0.147c0.052,0.113,0.121,0.13,0.33,0.166
					c0.017,0,0.035,0,0.053,0.018c0.978,0.468,1.868,1.152,2.651,2.004C378.729,240.791,379.359,243.773,378.673,246.531z"/>
				<path fill-rule="evenodd" clip-rule="evenodd" fill="#FFC300" d="M381.05,247.288c-0.995,3.65-4.378,6.052-7.956,6.087
					c-0.655,0-1.467-0.053-2.27-0.27c-0.088-0.018-0.318-0.053-0.417-0.164c-0.333-0.07-0.543-0.217-0.892-0.304
					c-0.854-0.417-1.5-0.921-2.233-1.571c-1.797-1.864-2.704-4.422-2.304-7.077l4.938,1.372l0.508,0.181
					c0.715,0.104,1.29-0.2,1.432-0.849c0.242-0.634-0.142-1.285-0.699-1.482l-0.296-0.036l-5.306-1.517
					c1.57-3.285,4.835-5.26,8.323-4.928c0.07,0,0.14,0,0.366,0.019c0.017,0,0.035,0,0.053,0.018
					c0.401,0.017,0.814,0.146,1.065,0.217c0.767,0.198,1.345,0.468,2.04,0.849c0.835,0.468,1.45,1.084,1.979,1.769
					C381.119,241.623,381.87,244.477,381.05,247.288z"/>
			</g>
		</g>
		<g>
			<g>
				<path fill-rule="evenodd" clip-rule="evenodd" fill="#FFC300" d="M390.352,220.212c-0.978,3.667-4.309,5.992-7.696,6.158
					c-0.402,0.017-0.837,0-1.257-0.053c-0.819-0.381-1.585-0.851-2.126-1.449c-1.887-1.786-3.019-4.474-2.601-7.271l5.305,1.497
					l0.276,0.034c0.56,0.2,1.141-0.127,1.414-0.755c0.123-0.615-0.09-1.231-0.767-1.449c-0.018-0.017-0.053-0.034-0.07-0.034
					l-5.428-1.536c1.413-3.356,4.939-5.359,8.517-4.926c0.019,0,0.052,0.018,0.071,0.035c1.22,0.572,2.162,1.354,2.981,2.367v0.018
					C390.456,214.852,391.154,217.559,390.352,220.212z"/>
				<path fill-rule="evenodd" clip-rule="evenodd" fill="#FFC300" d="M392.73,220.897c-1.143,4.513-5.815,7.059-10.227,5.87
					c-0.04,0-0.057-0.017-0.092-0.017v-0.089c-0.401-0.075-0.646-0.24-1.014-0.344c-0.819-0.381-1.585-0.851-2.126-1.449
					c-1.887-1.786-3.019-4.474-2.601-7.271l5.305,1.497l0.276,0.034c0.56,0.2,1.141-0.127,1.414-0.755
					c0.123-0.615-0.09-1.231-0.767-1.449c-0.018-0.017-0.053-0.034-0.07-0.034l-5.428-1.536c1.413-3.356,4.939-5.359,8.517-4.926
					h0.089c0.399,0.035,0.8,0.092,1.185,0.234c0.854,0.234,1.521,0.614,2.269,1.065C392.296,213.604,393.859,217.324,392.73,220.897
					z"/>
			</g>
		</g>
		<g>
			<g>
				<path fill-rule="evenodd" clip-rule="evenodd" fill="#FFC300" d="M398.214,202.105c-1.073,3.433-3.867,5.706-7.06,6.104
					c-0.75,0.053-1.327,0.053-2.076-0.017c-0.507-0.326-1.014-0.617-1.467-1.015c-2.252-1.769-3.508-4.674-3.07-7.616l5.427,1.505
					c0.273,0.067,0.384,0.067,0.488,0c0.437-0.099,0.838-0.368,0.929-0.801c0.223-0.362,0.171-0.651-0.072-0.902
					c-0.088-0.261-0.42-0.451-0.614-0.598l-5.58-1.536c1.585-3.356,5.007-5.376,8.686-4.925c0.213,0.097,0.562,0.268,0.89,0.468
					c1.034,0.685,1.94,1.609,2.631,2.707C398.414,197.411,398.815,199.815,398.214,202.105z"/>
				<path fill-rule="evenodd" clip-rule="evenodd" fill="#FFC300" d="M400.611,202.773c-1.254,4.352-5.492,6.972-9.788,5.94
					c-0.089,0-0.349-0.019-0.438-0.053c-0.454-0.164-0.891-0.292-1.308-0.468c-0.507-0.326-1.014-0.617-1.467-1.015
					c-2.252-1.769-3.508-4.674-3.07-7.616l5.427,1.505c0.273,0.067,0.384,0.067,0.488,0c0.437-0.099,0.838-0.368,0.929-0.801
					c0.223-0.362,0.171-0.651-0.072-0.902c-0.088-0.261-0.42-0.451-0.614-0.598l-5.58-1.536c1.585-3.356,5.007-5.376,8.686-4.925
					c0.231,0.017,0.597,0.07,0.979,0.217c0.036,0,0.087,0,0.124,0.017c1.221,0.288,2.181,0.885,3.053,1.586
					C400.453,196.129,401.521,199.562,400.611,202.773z"/>
			</g>
		</g>
		<g>
			<g>
				<path fill-rule="evenodd" clip-rule="evenodd" fill="#FFC300" d="M407.385,184.361c-0.979,3.554-4.104,5.94-7.573,6.059
					c-0.454,0.098-0.909,0.079-1.364-0.031c-0.627-0.287-1.359-0.721-1.9-1.207c-2.111-1.879-3.106-4.605-2.688-7.441l5.428,1.536
					c0.07,0.017,0.284,0.034,0.364,0.034c0.489,0,0.943-0.303,1.05-0.85c0.226-0.32,0.019-0.719-0.106-0.97
					c-0.088-0.216-0.4-0.398-0.64-0.45l-5.52-1.553c1.569-3.431,4.988-5.455,8.722-4.917c0.233,0.112,0.595,0.312,0.944,0.528
					c1.014,0.685,1.885,1.636,2.586,2.727C407.732,179.738,408.116,182.104,407.385,184.361z"/>
				<path fill-rule="evenodd" clip-rule="evenodd" fill="#FFC300" d="M409.913,185.046c-1.291,4.441-5.812,7.059-10.208,5.797
					h-0.035c-0.419-0.091-0.819-0.257-1.223-0.455c-0.627-0.287-1.359-0.721-1.9-1.207c-2.111-1.879-3.106-4.605-2.688-7.441
					l5.428,1.536c0.07,0.017,0.284,0.034,0.364,0.034c0.489,0,0.943-0.303,1.05-0.85c0.226-0.32,0.019-0.719-0.106-0.97
					c-0.088-0.216-0.4-0.398-0.64-0.45l-5.52-1.553c1.569-3.431,4.988-5.455,8.722-4.917c0.396,0.024,0.665,0.078,1.067,0.21
					c1.238,0.318,2.234,0.916,3.125,1.654C409.784,178.455,410.82,181.784,409.913,185.046z"/>
			</g>
		</g>
		<g>
			<g>
				<path fill-rule="evenodd" clip-rule="evenodd" fill="#FFC300" d="M416.267,165.333c-0.873,3.031-3.194,5.162-5.969,5.901
					c-0.909,0.254-2.023,0.292-2.984,0.126c-0.4-0.017-0.799-0.051-1.05-0.194c0.038-0.074,0.089-0.216,0.125-0.292
					c-2.688-1.735-4.118-4.874-3.664-8.16l5.426,1.535c0.577,0.199,1.309-0.199,1.414-0.833c0.279-0.566-0.122-1.25-0.837-1.405
					l-5.429-1.534c1.438-3.364,4.958-5.406,8.537-4.99c0.819,0.366,1.585,0.836,2.144,1.451c0.982,0.902,1.78,2.057,2.216,3.375
					v0.023C416.686,161.894,416.741,163.617,416.267,165.333z"/>
				<path fill-rule="evenodd" clip-rule="evenodd" fill="#FFC300" d="M418.796,166.019c-1.221,4.007-4.98,6.569-8.952,6.033
					c-0.42-0.04-0.854-0.093-1.274-0.24c-0.437-0.068-0.855-0.251-1.256-0.451c-0.364-0.088-0.578-0.285-0.925-0.485
					c-2.688-1.735-4.118-4.874-3.664-8.16l5.426,1.535c0.577,0.199,1.309-0.199,1.414-0.833c0.279-0.566-0.122-1.25-0.837-1.405
					l-5.429-1.534c1.438-3.364,4.958-5.406,8.537-4.99c0.416,0.069,0.835,0.132,1.271,0.208c0.438,0.158,0.854,0.321,1.273,0.471
					c1.091,0.554,2.128,1.275,2.793,2.252C418.866,160.458,419.615,163.255,418.796,166.019z"/>
			</g>
		</g>
		<g>
			<path fill-rule="evenodd" clip-rule="evenodd" fill="#FFC300" d="M320.556,301.817c-0.368,0.717-1.029,0.881-1.753,0.67l0,0
				c-0.568-0.367-0.885-1.177-0.52-1.746l5.516-10.903c0.362-0.641,1.181-0.88,1.748-0.515l0,0c0.724,0.291,0.885,1.097,0.673,1.74
				L320.556,301.817z"/>
			<path fill-rule="evenodd" clip-rule="evenodd" fill="#FFC300" d="M331.351,293.608c-0.099,0.481-0.59,0.772-1.072,0.631
				l-5.687-1.581c-0.479-0.157-0.826-0.649-0.578-1.127l0,0c0.092-0.552,0.586-0.819,1.066-0.654l5.688,1.573
				C331.248,292.611,331.592,293.096,331.351,293.608L331.351,293.608z"/>
			<path fill-rule="evenodd" clip-rule="evenodd" fill="#FFC300" d="M326.785,303.049c-0.091,0.478-0.585,0.818-1.219,0.573
				l-5.533-1.494c-0.479-0.242-0.824-0.734-0.731-1.212l0,0c0.247-0.478,0.74-0.814,1.22-0.579l5.687,1.497
				C326.689,302.081,326.879,302.571,326.785,303.049L326.785,303.049z"/>
		</g>
		<g>
			<path fill-rule="evenodd" clip-rule="evenodd" fill="#FFC300" d="M268.808,399.989c-0.367,0.865-1.302,1.301-2.171,1.089l0,0
				c-0.871-0.359-1.31-1.285-0.944-2.151l5.467-14.666c0.363-0.855,1.298-1.29,2.167-1.079l0,0c0.871,0.359,1.31,1.289,0.945,2.153
				L268.808,399.989z"/>
			<path fill-rule="evenodd" clip-rule="evenodd" fill="#FFC300" d="M281.373,387.889c-0.07,0.538-0.541,0.954-1.22,0.971h-0.141
				l-4.45-0.772l-2.198-0.233l-0.837-0.242c-0.595-0.069-1.03-0.625-0.96-1.353c0.053-0.538,0.523-0.972,1.064-0.972
				c0.208,0,0.243,0.017,0.295,0.017l1.31,0.271l2.197,0.25l3.979,0.71c0.124,0.018,0.229,0.07,0.473,0.14
				C281.286,386.986,281.427,387.42,281.373,387.889z"/>
			<path fill-rule="evenodd" clip-rule="evenodd" fill="#FFC300" d="M276.909,400.674c-0.069,0.582-0.784,1.027-1.368,0.959
				l-7.49-1.234c-0.586-0.068-1.188-0.625-0.964-1.359l0,0c0.069-0.582,0.628-1.028,1.368-0.961l7.489,1.231
				C276.531,399.383,276.977,399.939,276.909,400.674L276.909,400.674z"/>
		</g>
		<path fill-rule="evenodd" clip-rule="evenodd" fill="#FFC300" d="M286.837,444.662c-0.979,3.758-3.96,6.394-7.278,7.277
			c-0.313,0.054-0.471,0.088-0.784,0.107c-1.449,0.342-3.123,0.254-4.625-0.215c-5.619-1.555-8.796-7.261-7.31-12.69
			c0.365-1.232,0.87-2.221,1.62-3.164c1.938-2.906,5.41-4.605,8.972-4.313c0.801,0,1.602,0.088,2.251,0.38
			C285.299,433.506,288.458,439.229,286.837,444.662z"/>
		<path fill-rule="evenodd" clip-rule="evenodd" fill="#FFC300" d="M357.93,381.402c-10.68,16.144-23.089,36.561-28.497,52.588
			c0.4-1.838,0.853-3.694,1.378-5.703c0-0.02,0-0.037,0.019-0.055C336.918,416.176,345.888,398.626,357.93,381.402z"/>
		<path fill-rule="evenodd" clip-rule="evenodd" fill="#FFC300" d="M401.782,337.899c0,0,17.957,5.288,13.926-30.827
			C421.165,332.824,416.208,343.836,401.782,337.899z"/>
		<path fill-rule="evenodd" clip-rule="evenodd" fill="#FFC300" d="M417.469,277.803c-7.502-6.625-15.984-9.607-23.557-7.205
			c-0.507,0.182-0.998,0.398-1.639,0.615c-0.686,0.033-1.344,0.087-1.469,0.181C396.233,268.359,408.239,268.629,417.469,277.803z"
			/>
		<path fill-rule="evenodd" clip-rule="evenodd" fill="#FFC300" d="M275.108,416.159c-0.73,6.368-0.767,10.552-0.767,10.552
			S274.184,422.891,275.108,416.159z"/>
		<path fill-rule="evenodd" clip-rule="evenodd" fill="#FFC300" d="M281.373,387.889c-0.07,0.538-0.541,0.954-1.22,0.971
			c0.296-0.772,0.436-1.405,0.732-2.185C281.286,386.986,281.427,387.42,281.373,387.889z"/>
		<path fill-rule="evenodd" clip-rule="evenodd" fill="#FFC300" d="M357.822,272.061l-4.797,10.617l-0.035,0.018
			C354.665,279.139,356.166,275.507,357.822,272.061z"/>
	</g>
</g>
<g id="DESIGNED_BY_FREEPIK">
</g>
</svg>
